<?xml version="1.0" encoding="utf-8" standalone="no"?>
<!DOCTYPE svg PUBLIC "-//W3C//DTD SVG 1.1//EN"
  "http://www.w3.org/Graphics/SVG/1.1/DTD/svg11.dtd">
<svg xmlns:xlink="http://www.w3.org/1999/xlink" width="282.412087pt" height="284.06218pt" viewBox="0 0 282.412087 284.06218" xmlns="http://www.w3.org/2000/svg" version="1.1">
 <metadata>
  <rdf:RDF xmlns:dc="http://purl.org/dc/elements/1.1/" xmlns:cc="http://creativecommons.org/ns#" xmlns:rdf="http://www.w3.org/1999/02/22-rdf-syntax-ns#">
   <cc:Work>
    <dc:type rdf:resource="http://purl.org/dc/dcmitype/StillImage"/>
    <dc:date>2024-10-25T16:03:44.806312</dc:date>
    <dc:format>image/svg+xml</dc:format>
    <dc:creator>
     <cc:Agent>
      <dc:title>Matplotlib v3.9.2, https://matplotlib.org/</dc:title>
     </cc:Agent>
    </dc:creator>
   </cc:Work>
  </rdf:RDF>
 </metadata>
 <defs>
  <style type="text/css">*{stroke-linejoin: round; stroke-linecap: butt}</style>
 </defs>
 <g id="figure_1">
  <g id="patch_1">
   <path d="M 0 284.06218 
L 282.412087 284.06218 
L 282.412087 0 
L 0 0 
z
" style="fill: #ffffff"/>
  </g>
  <g id="axes_1">
   <g id="patch_2">
    <path d="M 188.440371 247.175482 
C 189.053781 246.889548 189.664634 246.59816 190.272856 246.301352 
C 190.881079 246.004544 191.486648 245.702328 192.08949 245.39474 
L 140.256 143.80618 
z
" clip-path="url(#p070aaeae91)" style="fill: #348abd; opacity: 0.001845"/>
   </g>
   <g id="patch_3">
    <path d="M 192.018555 245.430902 
C 192.621613 245.123735 193.221924 244.811206 193.819417 244.493352 
C 194.416911 244.175498 195.011564 243.852332 195.603304 243.523892 
L 140.256 143.80618 
z
" clip-path="url(#p070aaeae91)" style="fill: #348abd; opacity: 0.003691"/>
   </g>
   <g id="patch_4">
    <path d="M 195.533675 243.562508 
C 196.125645 243.234481 196.714683 242.901192 197.30072 242.56268 
C 197.886756 242.224167 198.469768 241.880445 199.049686 241.531554 
L 140.256 143.80618 
z
" clip-path="url(#p070aaeae91)" style="fill: #348abd; opacity: 0.003691"/>
   </g>
   <g id="patch_5">
    <path d="M 198.981447 241.572576 
C 199.561608 241.22409 200.138656 240.870447 200.712522 240.511688 
C 201.286387 240.152929 201.857049 239.78907 202.424437 239.420152 
L 140.256 143.80618 
z
" clip-path="url(#p070aaeae91)" style="fill: #348abd; opacity: 0.007382"/>
   </g>
   <g id="patch_6">
    <path d="M 202.357671 239.463531 
C 202.925317 239.09501 203.489671 238.721443 204.050667 238.342875 
C 204.611662 237.964308 205.169277 237.580754 205.723445 237.19226 
L 140.256 143.80618 
z
" clip-path="url(#p070aaeae91)" style="fill: #348abd; opacity: 0.009227"/>
   </g>
   <g id="patch_7">
    <path d="M 205.658233 237.237942 
C 206.212672 236.849835 206.763646 236.4568 207.311088 236.058884 
C 207.85853 235.660969 208.402419 235.258188 208.942691 234.850591 
L 140.256 143.80618 
z
" clip-path="url(#p070aaeae91)" style="fill: #348abd; opacity: 0.014764"/>
   </g>
   <g id="patch_8">
    <path d="M 208.879114 234.898521 
C 209.41967 234.4913 209.956591 234.079276 210.489813 233.662498 
C 211.023034 233.245719 211.552536 232.824202 212.078253 232.397998 
L 140.256 143.80618 
z
" clip-path="url(#p070aaeae91)" style="fill: #348abd; opacity: 0.0203"/>
   </g>
   <g id="patch_9">
    <path d="M 212.016387 232.448118 
C 212.542402 232.02228 213.064617 231.591769 213.582968 231.156635 
C 214.10132 230.721501 214.615788 230.281762 215.126311 229.83747 
L 140.256 143.80618 
z
" clip-path="url(#p070aaeae91)" style="fill: #348abd; opacity: 0.027682"/>
   </g>
   <g id="patch_10">
    <path d="M 215.066232 229.889718 
C 215.577065 229.445782 216.083937 228.997308 216.586786 228.544349 
C 217.089636 228.09139 217.588444 227.633964 218.083151 227.172125 
L 140.256 143.80618 
z
" clip-path="url(#p070aaeae91)" style="fill: #348abd; opacity: 0.038754"/>
   </g>
   <g id="patch_11">
    <path d="M 218.024931 227.226439 
C 218.519961 226.764946 219.010872 226.299055 219.497607 225.828823 
C 219.984343 225.358591 220.466883 224.884035 220.94517 224.405213 
L 140.256 143.80618 
z
" clip-path="url(#p070aaeae91)" style="fill: #348abd; opacity: 0.053518"/>
   </g>
   <g id="patch_12">
    <path d="M 220.888882 224.461525 
C 221.367503 223.983037 221.841856 223.500297 222.311884 223.013365 
C 222.781912 222.526432 223.247597 222.035325 223.708882 221.540103 
L 140.256 143.80618 
z
" clip-path="url(#p070aaeae91)" style="fill: #348abd; opacity: 0.081815"/>
   </g>
   <g id="patch_13">
    <path d="M 223.654593 221.598345 
C 224.116224 221.103444 224.573441 220.604445 225.026189 220.101405 
C 225.478937 219.598365 225.927198 219.091305 226.37092 218.580286 
L 140.256 143.80618 
z
" clip-path="url(#p070aaeae91)" style="fill: #348abd; opacity: 0.118601"/>
   </g>
   <g id="patch_14">
    <path d="M 226.318697 218.640387 
C 226.762775 218.129677 227.202298 217.615025 227.637214 217.096491 
C 228.072131 216.577957 228.502423 216.055562 228.92804 215.529368 
L 140.256 143.80618 
z
" clip-path="url(#p070aaeae91)" style="fill: #348abd; opacity: 0.16366"/>
   </g>
   <g id="patch_15">
    <path d="M 228.877946 215.591255 
C 229.30393 215.065359 229.725224 214.53568 230.141779 214.002284 
C 230.558334 213.468888 230.970132 212.931794 231.377126 212.391067 
L 140.256 143.80618 
z
" clip-path="url(#p070aaeae91)" style="fill: #348abd; opacity: 0.229112"/>
   </g>
   <g id="patch_16">
    <path d="M 231.329223 212.454664 
C 231.736594 211.914221 232.139146 211.370163 232.536832 210.822554 
C 232.934518 210.274945 233.327321 209.723807 233.715196 209.169205 
L 140.256 143.80618 
z
" clip-path="url(#p070aaeae91)" style="fill: #348abd; opacity: 0.313403"/>
   </g>
   <g id="patch_17">
    <path d="M 233.669541 209.234436 
C 234.057802 208.680105 234.441122 208.122329 234.819454 207.561175 
C 235.197787 207.00002 235.571116 206.435509 235.939399 205.867709 
L 140.256 143.80618 
z
" clip-path="url(#p070aaeae91)" style="fill: #348abd; opacity: 0.413918"/>
   </g>
   <g id="patch_18">
    <path d="M 235.896049 205.934493 
C 236.264728 205.36695 236.628348 204.796136 236.986866 204.22212 
C 237.345384 203.648104 237.698785 203.070908 238.047028 202.4906 
L 140.256 143.80618 
z
" clip-path="url(#p070aaeae91)" style="fill: #348abd; opacity: 0.500038"/>
   </g>
   <g id="patch_19">
    <path d="M 238.006035 202.558857 
C 238.354682 201.978793 238.69816 201.395636 239.036426 200.809458 
C 239.374693 200.223279 239.707735 199.634101 240.035513 199.041993 
L 140.256 143.80618 
z
" clip-path="url(#p070aaeae91)" style="fill: #348abd; opacity: 0.584037"/>
   </g>
   <g id="patch_20">
    <path d="M 239.996927 199.111639 
C 240.325118 198.519761 240.648035 197.924973 240.965638 197.327346 
C 241.283241 196.729719 241.595518 196.129277 241.902432 195.52609 
L 140.256 143.80618 
z
" clip-path="url(#p070aaeae91)" style="fill: #348abd; opacity: 0.653057"/>
   </g>
   <g id="patch_21">
    <path d="M 241.8663 195.59704 
C 242.173635 194.994069 242.475597 194.388373 242.77215 193.780026 
C 243.068702 193.171679 243.359834 192.560705 243.645511 191.947175 
L 140.256 143.80618 
z
" clip-path="url(#p070aaeae91)" style="fill: #348abd; opacity: 0.726874"/>
   </g>
   <g id="patch_22">
    <path d="M 243.611877 192.019343 
C 243.897981 191.406012 244.178621 190.790148 244.453762 190.171822 
C 244.728903 189.553496 244.998535 188.932733 245.262625 188.309607 
L 140.256 143.80618 
z
" clip-path="url(#p070aaeae91)" style="fill: #348abd; opacity: 0.79331"/>
   </g>
   <g id="patch_23">
    <path d="M 245.23153 188.382904 
C 245.496056 187.759963 245.755031 187.134679 246.008425 186.507128 
C 246.261819 185.879576 246.509622 185.249781 246.751805 184.617818 
L 140.256 143.80618 
z
" clip-path="url(#p070aaeae91)" style="fill: #348abd; opacity: 0.848674"/>
   </g>
   <g id="patch_24">
    <path d="M 246.723287 184.692156 
C 246.965911 184.060362 247.202906 183.426422 247.434245 182.790409 
C 247.665584 182.154396 247.891256 181.516337 248.111236 180.876307 
L 140.256 143.80618 
z
" clip-path="url(#p070aaeae91)" style="fill: #348abd; opacity: 0.886198"/>
   </g>
   <g id="patch_25">
    <path d="M 248.08533 180.951595 
C 248.305757 180.311719 248.520484 179.669893 248.729485 179.026194 
C 248.938486 178.382495 249.141753 177.736949 249.339263 177.089631 
L 140.256 143.80618 
z
" clip-path="url(#p070aaeae91)" style="fill: #348abd; opacity: 0.91351"/>
   </g>
   <g id="patch_26">
    <path d="M 249.316 177.165778 
C 249.513961 176.518598 249.706157 175.86967 249.892566 175.219069 
C 250.078976 174.568468 250.25959 173.916221 250.434388 173.262405 
L 140.256 143.80618 
z
" clip-path="url(#p070aaeae91)" style="fill: #348abd; opacity: 0.931719"/>
   </g>
   <g id="patch_27">
    <path d="M 250.413797 173.339317 
C 250.589051 172.685623 250.758483 172.030382 250.922073 171.373672 
C 251.085663 170.716962 251.243404 170.058809 251.395277 169.399291 
L 140.256 143.80618 
z
" clip-path="url(#p070aaeae91)" style="fill: #348abd; opacity: 0.949927"/>
   </g>
   <g id="patch_28">
    <path d="M 251.377383 169.476874 
C 251.529717 168.817462 251.676178 168.156707 251.81675 167.494688 
C 251.957321 166.832669 252.091997 166.169412 252.220761 165.504995 
L 140.256 143.80618 
z
" clip-path="url(#p070aaeae91)" style="fill: #348abd; opacity: 0.959031"/>
   </g>
   <g id="patch_29">
    <path d="M 252.205585 165.583156 
C 252.334813 164.918829 252.458125 164.253366 252.575507 163.586844 
C 252.692889 162.920322 252.804335 162.252769 252.909833 161.584263 
L 140.256 143.80618 
z
" clip-path="url(#p070aaeae91)" style="fill: #348abd; opacity: 0.972687"/>
   </g>
   <g id="patch_30">
    <path d="M 252.897394 161.662906 
C 253.003359 160.994474 253.103371 160.325112 253.19742 159.6549 
C 253.291469 158.984687 253.37955 158.313651 253.461653 157.641871 
L 140.256 143.80618 
z
" clip-path="url(#p070aaeae91)" style="fill: #348abd; opacity: 0.97724"/>
   </g>
   <g id="patch_31">
    <path d="M 253.451967 157.7209 
C 253.534539 157.049177 253.61113 156.376733 253.681732 155.703646 
C 253.752333 155.03056 253.816942 154.356859 253.87555 153.682622 
L 140.256 143.80618 
z
" clip-path="url(#p070aaeae91)" style="fill: #348abd; opacity: 0.981792"/>
   </g>
   <g id="patch_32">
    <path d="M 253.868627 153.761941 
C 253.927707 153.087746 253.980783 152.413038 254.027851 151.737898 
C 254.074919 151.062758 254.115977 150.387212 254.151019 149.711341 
L 140.256 143.80618 
z
" clip-path="url(#p070aaeae91)" style="fill: #348abd; opacity: 0.986344"/>
   </g>
   <g id="patch_33">
    <path d="M 254.146869 149.790853 
C 254.182383 149.115007 254.21188 148.438857 254.235358 147.762486 
C 254.258835 147.086114 254.276291 146.409547 254.287724 145.732865 
L 140.256 143.80618 
z
" clip-path="url(#p070aaeae91)" style="fill: #348abd; opacity: 0.990896"/>
   </g>
   <g id="patch_34">
    <path d="M 254.286352 145.812473 
C 254.298257 145.135799 254.304139 144.459032 254.303997 143.782253 
C 254.303856 143.105475 254.297689 142.42871 254.2855 141.752041 
L 140.256 143.80618 
z
" clip-path="url(#p070aaeae91)" style="fill: #348abd; opacity: 0.990896"/>
   </g>
   <g id="patch_35">
    <path d="M 254.286906 141.831649 
C 254.275189 141.154972 254.257449 140.478412 254.233688 139.80205 
C 254.209926 139.125689 254.180145 138.449552 254.144348 137.77372 
L 140.256 143.80618 
z
" clip-path="url(#p070aaeae91)" style="fill: #348abd; opacity: 0.995448"/>
   </g>
   <g id="patch_36">
    <path d="M 254.148531 137.853231 
C 254.113206 137.177375 254.071865 136.501846 254.024513 135.826726 
C 253.977162 135.151605 253.923802 134.47692 253.86444 133.802749 
L 140.256 143.80618 
z
" clip-path="url(#p070aaeae91)" style="fill: #348abd; opacity: 0.995448"/>
   </g>
   <g id="patch_37">
    <path d="M 253.871396 133.882065 
C 253.812505 133.207853 253.747614 132.534179 253.67673 131.861123 
C 253.605846 131.188066 253.528972 130.515654 253.446118 129.843966 
L 140.256 143.80618 
z
" clip-path="url(#p070aaeae91)" style="fill: #348abd"/>
   </g>
   <g id="patch_38">
    <path d="M 253.455838 129.922991 
C 253.373453 129.251245 253.28509 128.580246 253.19076 127.910073 
C 253.09643 127.2399 252.996137 126.57058 252.889892 125.902193 
L 140.256 143.80618 
z
" clip-path="url(#p070aaeae91)" style="fill: #348abd"/>
   </g>
   <g id="patch_39">
    <path d="M 252.902364 125.98083 
C 252.796585 125.312369 252.684859 124.644862 252.567197 123.97839 
C 252.449536 123.311918 252.325945 122.646506 252.196438 121.982233 
L 140.256 143.80618 
z
" clip-path="url(#p070aaeae91)" style="fill: #348abd"/>
   </g>
   <g id="patch_40">
    <path d="M 252.211647 122.060388 
C 252.082604 121.396025 251.94765 120.732824 251.806801 120.070864 
C 251.665951 119.408904 251.519213 118.748211 251.366602 118.088863 
L 140.256 143.80618 
z
" clip-path="url(#p070aaeae91)" style="fill: #348abd"/>
   </g>
   <g id="patch_41">
    <path d="M 251.384529 118.166439 
C 251.232379 117.506985 251.074362 116.848898 250.910496 116.192256 
C 250.746631 115.535615 250.576924 114.880445 250.401395 114.226825 
L 140.256 143.80618 
z
" clip-path="url(#p070aaeae91)" style="fill: #348abd"/>
   </g>
   <g id="patch_42">
    <path d="M 250.422019 114.303728 
C 250.246946 113.649986 250.066059 112.997814 249.879376 112.347292 
C 249.692694 111.696769 249.500226 111.047921 249.301993 110.400825 
L 140.256 143.80618 
z
" clip-path="url(#p070aaeae91)" style="fill: #348abd"/>
   </g>
   <g id="patch_43">
    <path d="M 249.325288 110.476962 
C 249.127507 109.829727 248.923969 109.184266 248.714698 108.540655 
C 248.505426 107.897044 248.29043 107.255308 248.069735 106.615525 
L 140.256 143.80618 
z
" clip-path="url(#p070aaeae91)" style="fill: #348abd"/>
   </g>
   <g id="patch_44">
    <path d="M 248.095673 106.690802 
C 247.875424 106.050864 247.649484 105.4129 247.417878 104.776984 
C 247.186273 104.141068 246.949012 103.507227 246.706123 102.875535 
L 140.256 143.80618 
z
" clip-path="url(#p070aaeae91)" style="fill: #348abd"/>
   </g>
   <g id="patch_45">
    <path d="M 246.734672 102.949861 
C 246.492224 102.318 246.244156 101.688309 245.990499 101.060864 
C 245.736841 100.433419 245.477604 99.808244 245.212817 99.185413 
L 140.256 143.80618 
z
" clip-path="url(#p070aaeae91)" style="fill: #348abd"/>
   </g>
   <g id="patch_46">
    <path d="M 245.243943 99.258698 
C 244.979591 98.635683 244.709699 98.015033 244.434298 97.396822 
C 244.158898 96.778612 243.878 96.162865 243.591638 95.549655 
L 140.256 143.80618 
z
" clip-path="url(#p070aaeae91)" style="fill: #348abd"/>
   </g>
   <g id="patch_47">
    <path d="M 243.625302 95.621808 
C 243.339369 95.008399 243.04798 94.397546 242.751173 93.789323 
C 242.454365 93.181101 242.152149 92.575532 241.84456 91.97269 
L 140.256 143.80618 
z
" clip-path="url(#p070aaeae91)" style="fill: #348abd"/>
   </g>
   <g id="patch_48">
    <path d="M 241.880722 92.043624 
C 241.573555 91.440567 241.261026 90.840256 240.943172 90.242762 
C 240.625318 89.645269 240.302152 89.050616 239.973713 88.458876 
L 140.256 143.80618 
z
" clip-path="url(#p070aaeae91)" style="fill: #348abd"/>
   </g>
   <g id="patch_49">
    <path d="M 240.012328 88.528505 
C 239.684302 87.936535 239.351012 87.347497 239.0125 86.76146 
C 238.673987 86.175423 238.330265 85.592412 237.981374 85.012494 
L 140.256 143.80618 
z
" clip-path="url(#p070aaeae91)" style="fill: #348abd"/>
   </g>
   <g id="patch_50">
    <path d="M 238.022396 85.080733 
C 237.67391 84.500572 237.320267 83.923524 236.961508 83.349658 
C 236.60275 82.775792 236.23889 82.205131 235.869973 81.637743 
L 140.256 143.80618 
z
" clip-path="url(#p070aaeae91)" style="fill: #348abd"/>
   </g>
   <g id="patch_51">
    <path d="M 235.913351 81.704509 
C 235.54483 81.136863 235.171263 80.572509 234.792696 80.011513 
C 234.414128 79.450517 234.030574 78.892902 233.64208 78.338735 
L 140.256 143.80618 
z
" clip-path="url(#p070aaeae91)" style="fill: #348abd"/>
   </g>
   <g id="patch_52">
    <path d="M 233.687762 78.403946 
C 233.299655 77.849507 232.90662 77.298534 232.508705 76.751092 
C 232.110789 76.20365 231.708008 75.65976 231.300411 75.119488 
L 140.256 143.80618 
z
" clip-path="url(#p070aaeae91)" style="fill: #348abd"/>
   </g>
   <g id="patch_53">
    <path d="M 231.348341 75.183066 
C 230.94112 74.64251 230.529096 74.105589 230.112318 73.572367 
C 229.695539 73.039146 229.274023 72.509644 228.847818 71.983926 
L 140.256 143.80618 
z
" clip-path="url(#p070aaeae91)" style="fill: #348abd"/>
   </g>
   <g id="patch_54">
    <path d="M 228.897938 72.045793 
C 228.4721 71.519777 228.041589 70.997563 227.606455 70.479211 
C 227.171321 69.96086 226.731582 69.446392 226.28729 68.935869 
L 140.256 143.80618 
z
" clip-path="url(#p070aaeae91)" style="fill: #348abd"/>
   </g>
   <g id="patch_55">
    <path d="M 226.339538 68.995948 
C 225.895602 68.485115 225.447128 67.978243 224.994169 67.475393 
C 224.54121 66.972544 224.083784 66.473736 223.621946 65.979029 
L 140.256 143.80618 
z
" clip-path="url(#p070aaeae91)" style="fill: #348abd"/>
   </g>
   <g id="patch_56">
    <path d="M 223.676259 66.037248 
C 223.214766 65.542219 222.748875 65.051308 222.278643 64.564573 
C 221.808411 64.077837 221.333855 63.595297 220.855033 63.11701 
L 140.256 143.80618 
z
" clip-path="url(#p070aaeae91)" style="fill: #348abd"/>
   </g>
   <g id="patch_57">
    <path d="M 220.911345 63.173298 
C 220.432857 62.694676 219.950118 62.220323 219.463185 61.750295 
C 218.976252 61.280267 218.485145 60.814583 217.989923 60.353298 
L 140.256 143.80618 
z
" clip-path="url(#p070aaeae91)" style="fill: #348abd"/>
   </g>
   <g id="patch_58">
    <path d="M 218.048165 60.407586 
C 217.553264 59.945955 217.054265 59.488739 216.551225 59.035991 
C 216.048185 58.583243 215.541125 58.134981 215.030106 57.69126 
L 140.256 143.80618 
z
" clip-path="url(#p070aaeae91)" style="fill: #348abd"/>
   </g>
   <g id="patch_59">
    <path d="M 215.090207 57.743483 
C 214.579497 57.299405 214.064845 56.859882 213.546311 56.424966 
C 213.027777 55.990049 212.505382 55.559757 211.979188 55.13414 
L 140.256 143.80618 
z
" clip-path="url(#p070aaeae91)" style="fill: #348abd"/>
   </g>
   <g id="patch_60">
    <path d="M 212.041075 55.184234 
C 211.515179 54.75825 210.985501 54.336956 210.452104 53.920401 
C 209.918708 53.503846 209.381614 53.092047 208.840887 52.685054 
L 140.256 143.80618 
z
" clip-path="url(#p070aaeae91)" style="fill: #348abd"/>
   </g>
   <g id="patch_61">
    <path d="M 208.904485 52.732957 
C 208.364042 52.325586 207.819983 51.923034 207.272374 51.525348 
C 206.724765 51.127662 206.173627 50.734859 205.619025 50.346984 
L 140.256 143.80618 
z
" clip-path="url(#p070aaeae91)" style="fill: #348abd"/>
   </g>
   <g id="patch_62">
    <path d="M 205.684256 50.392639 
C 205.129925 50.004377 204.57215 49.621058 204.010995 49.242725 
C 203.44984 48.864393 202.885329 48.491063 202.317529 48.12278 
L 140.256 143.80618 
z
" clip-path="url(#p070aaeae91)" style="fill: #348abd"/>
   </g>
   <g id="patch_63">
    <path d="M 202.384313 48.166131 
C 201.81677 47.797452 201.245957 47.433831 200.67194 47.075314 
C 200.097924 46.716796 199.520728 46.363395 198.94042 46.015152 
L 140.256 143.80618 
z
" clip-path="url(#p070aaeae91)" style="fill: #348abd"/>
   </g>
   <g id="patch_64">
    <path d="M 199.008677 46.056145 
C 198.428613 45.707498 197.845457 45.36402 197.259278 45.025754 
C 196.673099 44.687487 196.083921 44.354445 195.491814 44.026667 
L 140.256 143.80618 
z
" clip-path="url(#p070aaeae91)" style="fill: #348abd"/>
   </g>
   <g id="patch_65">
    <path d="M 195.561459 44.065253 
C 194.969581 43.737062 194.374793 43.414145 193.777166 43.096542 
C 193.179539 42.778939 192.579097 42.466662 191.975911 42.159748 
L 140.256 143.80618 
z
" clip-path="url(#p070aaeae91)" style="fill: #348abd"/>
   </g>
   <g id="patch_66">
    <path d="M 192.046861 42.19588 
C 191.443889 41.888545 190.838194 41.586583 190.229847 41.29003 
C 189.621499 40.993477 189.010525 40.702346 188.396995 40.416669 
L 140.256 143.80618 
z
" clip-path="url(#p070aaeae91)" style="fill: #348abd"/>
   </g>
   <g id="patch_67">
    <path d="M 188.469163 40.450303 
C 187.855833 40.164199 187.239968 39.883559 186.621642 39.608418 
C 186.003316 39.333277 185.382553 39.063645 184.759427 38.799555 
L 140.256 143.80618 
z
" clip-path="url(#p070aaeae91)" style="fill: #348abd"/>
   </g>
   <g id="patch_68">
    <path d="M 184.832725 38.83065 
C 184.209783 38.566124 183.584499 38.307149 182.956948 38.053755 
C 182.329396 37.800361 181.699601 37.552558 181.067638 37.310375 
L 140.256 143.80618 
z
" clip-path="url(#p070aaeae91)" style="fill: #348abd; opacity: 0.995448"/>
   </g>
   <g id="patch_69">
    <path d="M 181.141976 37.338893 
C 180.510183 37.096269 179.876242 36.859273 179.240229 36.627935 
C 178.604216 36.396596 177.966157 36.170924 177.326127 35.950944 
L 140.256 143.80618 
z
" clip-path="url(#p070aaeae91)" style="fill: #348abd; opacity: 0.995448"/>
   </g>
   <g id="patch_70">
    <path d="M 177.401415 35.97685 
C 176.761539 35.756423 176.119713 35.541696 175.476014 35.332695 
C 174.832315 35.123694 174.186769 34.920427 173.539451 34.722917 
L 140.256 143.80618 
z
" clip-path="url(#p070aaeae91)" style="fill: #348abd; opacity: 0.990896"/>
   </g>
   <g id="patch_71">
    <path d="M 173.615598 34.74618 
C 172.968418 34.548219 172.31949 34.356022 171.668889 34.169613 
C 171.018288 33.983204 170.366041 33.80259 169.712225 33.627792 
L 140.256 143.80618 
z
" clip-path="url(#p070aaeae91)" style="fill: #348abd; opacity: 0.990896"/>
   </g>
   <g id="patch_72">
    <path d="M 169.789137 33.648383 
C 169.135443 33.473129 168.480202 33.303697 167.823492 33.140107 
C 167.166782 32.976517 166.508629 32.818776 165.849111 32.666902 
L 140.256 143.80618 
z
" clip-path="url(#p070aaeae91)" style="fill: #348abd; opacity: 0.986344"/>
   </g>
   <g id="patch_73">
    <path d="M 165.926694 32.684797 
C 165.267282 32.532463 164.606528 32.386001 163.944508 32.24543 
C 163.282489 32.104859 162.619232 31.970183 161.954815 31.841419 
L 140.256 143.80618 
z
" clip-path="url(#p070aaeae91)" style="fill: #348abd; opacity: 0.981792"/>
   </g>
   <g id="patch_74">
    <path d="M 162.032976 31.856595 
C 161.36865 31.727367 160.703186 31.604054 160.036664 31.486673 
C 159.370142 31.369291 158.702589 31.257845 158.034083 31.152347 
L 140.256 143.80618 
z
" clip-path="url(#p070aaeae91)" style="fill: #348abd; opacity: 0.97724"/>
   </g>
   <g id="patch_75">
    <path d="M 158.112726 31.164786 
C 157.444294 31.058821 156.774932 30.958809 156.10472 30.86476 
C 155.434508 30.770711 154.763471 30.68263 154.091691 30.600526 
L 140.256 143.80618 
z
" clip-path="url(#p070aaeae91)" style="fill: #348abd; opacity: 0.972687"/>
   </g>
   <g id="patch_76">
    <path d="M 154.17072 30.610213 
C 153.498997 30.527641 152.826553 30.45105 152.153467 30.380448 
C 151.48038 30.309847 150.806679 30.245238 150.132443 30.18663 
L 140.256 143.80618 
z
" clip-path="url(#p070aaeae91)" style="fill: #348abd; opacity: 0.959031"/>
   </g>
   <g id="patch_77">
    <path d="M 150.211762 30.193552 
C 149.537566 30.134473 148.862858 30.081397 148.187718 30.034328 
C 147.512578 29.98726 146.837032 29.946203 146.161161 29.911161 
L 140.256 143.80618 
z
" clip-path="url(#p070aaeae91)" style="fill: #348abd; opacity: 0.949927"/>
   </g>
   <g id="patch_78">
    <path d="M 146.240673 29.915311 
C 145.564827 29.879797 144.888678 29.8503 144.212306 29.826822 
C 143.535934 29.803345 142.859367 29.785889 142.182685 29.774455 
L 140.256 143.80618 
z
" clip-path="url(#p070aaeae91)" style="fill: #348abd; opacity: 0.931719"/>
   </g>
   <g id="patch_79">
    <path d="M 142.262294 29.775828 
C 141.585619 29.763923 140.908853 29.75804 140.232074 29.758182 
C 139.555295 29.758324 138.87853 29.76449 138.201861 29.77668 
L 140.256 143.80618 
z
" clip-path="url(#p070aaeae91)" style="fill: #348abd; opacity: 0.91351"/>
   </g>
   <g id="patch_80">
    <path d="M 138.281469 29.775274 
C 137.604792 29.786991 136.928232 29.804731 136.251871 29.828492 
C 135.575509 29.852253 134.899372 29.882035 134.223541 29.917832 
L 140.256 143.80618 
z
" clip-path="url(#p070aaeae91)" style="fill: #348abd; opacity: 0.886198"/>
   </g>
   <g id="patch_81">
    <path d="M 134.303051 29.913648 
C 133.627195 29.948974 132.951666 29.990315 132.276546 30.037667 
C 131.601425 30.085018 130.92674 30.138378 130.252569 30.19774 
L 140.256 143.80618 
z
" clip-path="url(#p070aaeae91)" style="fill: #348abd; opacity: 0.848674"/>
   </g>
   <g id="patch_82">
    <path d="M 130.331885 30.190784 
C 129.657674 30.249675 128.983999 30.314566 128.310943 30.38545 
C 127.637886 30.456334 126.965474 30.533208 126.293786 30.616062 
L 140.256 143.80618 
z
" clip-path="url(#p070aaeae91)" style="fill: #348abd; opacity: 0.79331"/>
   </g>
   <g id="patch_83">
    <path d="M 126.372811 30.606342 
C 125.701065 30.688727 125.030066 30.777089 124.359893 30.87142 
C 123.68972 30.96575 123.0204 31.066043 122.352013 31.172288 
L 140.256 143.80618 
z
" clip-path="url(#p070aaeae91)" style="fill: #348abd; opacity: 0.726874"/>
   </g>
   <g id="patch_84">
    <path d="M 122.430651 31.159816 
C 121.762189 31.265595 121.094683 31.377321 120.42821 31.494982 
C 119.761738 31.612644 119.096326 31.736235 118.432053 31.865742 
L 140.256 143.80618 
z
" clip-path="url(#p070aaeae91)" style="fill: #348abd; opacity: 0.653057"/>
   </g>
   <g id="patch_85">
    <path d="M 118.510208 31.850533 
C 117.845845 31.979576 117.182645 32.11453 116.520684 32.255379 
C 115.858724 32.396228 115.198031 32.542967 114.538683 32.695578 
L 140.256 143.80618 
z
" clip-path="url(#p070aaeae91)" style="fill: #348abd; opacity: 0.584037"/>
   </g>
   <g id="patch_86">
    <path d="M 114.616259 32.677651 
C 113.956805 32.829801 113.298718 32.987818 112.642077 33.151684 
C 111.985435 33.315549 111.330266 33.485256 110.676645 33.660785 
L 140.256 143.80618 
z
" clip-path="url(#p070aaeae91)" style="fill: #348abd; opacity: 0.500038"/>
   </g>
   <g id="patch_87">
    <path d="M 110.753548 33.640161 
C 110.099806 33.815233 109.447635 33.996121 108.797112 34.182803 
C 108.14659 34.369485 107.497742 34.561954 106.850645 34.760187 
L 140.256 143.80618 
z
" clip-path="url(#p070aaeae91)" style="fill: #348abd; opacity: 0.413918"/>
   </g>
   <g id="patch_88">
    <path d="M 106.926782 34.736892 
C 106.279548 34.934673 105.634086 35.138211 104.990475 35.347482 
C 104.346864 35.556754 103.705129 35.77175 103.065345 35.992445 
L 140.256 143.80618 
z
" clip-path="url(#p070aaeae91)" style="fill: #348abd; opacity: 0.313403"/>
   </g>
   <g id="patch_89">
    <path d="M 103.140622 35.966507 
C 102.500684 36.186756 101.86272 36.412696 101.226804 36.644301 
C 100.590889 36.875907 99.957047 37.113168 99.325355 37.356057 
L 140.256 143.80618 
z
" clip-path="url(#p070aaeae91)" style="fill: #348abd; opacity: 0.229112"/>
   </g>
   <g id="patch_90">
    <path d="M 99.399681 37.327508 
C 98.76782 37.569956 98.138129 37.818023 97.510684 38.071681 
C 96.883239 38.325338 96.258064 38.584576 95.635233 38.849363 
L 140.256 143.80618 
z
" clip-path="url(#p070aaeae91)" style="fill: #348abd; opacity: 0.16366"/>
   </g>
   <g id="patch_91">
    <path d="M 95.708518 38.818237 
C 95.085503 39.082589 94.464853 39.352481 93.846643 39.627881 
C 93.228432 39.903282 92.612685 40.18418 91.999475 40.470542 
L 140.256 143.80618 
z
" clip-path="url(#p070aaeae91)" style="fill: #348abd; opacity: 0.118601"/>
   </g>
   <g id="patch_92">
    <path d="M 92.071629 40.436877 
C 91.458219 40.722811 90.847366 41.014199 90.239144 41.311007 
C 89.630921 41.607815 89.025352 41.910031 88.42251 42.217619 
L 140.256 143.80618 
z
" clip-path="url(#p070aaeae91)" style="fill: #348abd; opacity: 0.081815"/>
   </g>
   <g id="patch_93">
    <path d="M 88.493445 42.181458 
C 87.890387 42.488625 87.290076 42.801154 86.692583 43.119008 
C 86.095089 43.436862 85.500436 43.760027 84.908696 44.088467 
L 140.256 143.80618 
z
" clip-path="url(#p070aaeae91)" style="fill: #348abd; opacity: 0.053518"/>
   </g>
   <g id="patch_94">
    <path d="M 84.978325 44.049852 
C 84.386355 44.377878 83.797317 44.711168 83.21128 45.04968 
C 82.625244 45.388192 82.042232 45.731914 81.462314 46.080806 
L 140.256 143.80618 
z
" clip-path="url(#p070aaeae91)" style="fill: #348abd; opacity: 0.038754"/>
   </g>
   <g id="patch_95">
    <path d="M 81.530553 46.039784 
C 80.950392 46.38827 80.373344 46.741913 79.799478 47.100672 
C 79.225613 47.45943 78.654951 47.82329 78.087563 48.192207 
L 140.256 143.80618 
z
" clip-path="url(#p070aaeae91)" style="fill: #348abd; opacity: 0.027682"/>
   </g>
   <g id="patch_96">
    <path d="M 78.154329 48.148829 
C 77.586683 48.51735 77.022329 48.890917 76.461333 49.269484 
C 75.900338 49.648052 75.342723 50.031606 74.788555 50.4201 
L 140.256 143.80618 
z
" clip-path="url(#p070aaeae91)" style="fill: #348abd; opacity: 0.0203"/>
   </g>
   <g id="patch_97">
    <path d="M 74.853767 50.374418 
C 74.299328 50.762525 73.748354 51.15556 73.200912 51.553475 
C 72.65347 51.951391 72.109581 52.354171 71.569309 52.761769 
L 140.256 143.80618 
z
" clip-path="url(#p070aaeae91)" style="fill: #348abd; opacity: 0.014764"/>
   </g>
   <g id="patch_98">
    <path d="M 71.632886 52.713839 
C 71.09233 53.121059 70.555409 53.533083 70.022187 53.949862 
C 69.488966 54.36664 68.959464 54.788157 68.433747 55.214362 
L 140.256 143.80618 
z
" clip-path="url(#p070aaeae91)" style="fill: #348abd; opacity: 0.009227"/>
   </g>
   <g id="patch_99">
    <path d="M 68.495613 55.164242 
C 67.969598 55.59008 67.447383 56.020591 66.929032 56.455725 
C 66.41068 56.890859 65.896212 57.330598 65.385689 57.77489 
L 140.256 143.80618 
z
" clip-path="url(#p070aaeae91)" style="fill: #348abd; opacity: 0.007382"/>
   </g>
   <g id="patch_100">
    <path d="M 65.445768 57.722642 
C 64.934935 58.166577 64.428063 58.615051 63.925214 59.06801 
C 63.422364 59.520969 62.923556 59.978395 62.428849 60.440234 
L 140.256 143.80618 
z
" clip-path="url(#p070aaeae91)" style="fill: #348abd; opacity: 0.003691"/>
   </g>
   <g id="patch_101">
    <path d="M 62.487069 60.385921 
C 61.992039 60.847414 61.501128 61.313304 61.014393 61.783537 
C 60.527657 62.253769 60.045117 62.728324 59.56683 63.207147 
L 140.256 143.80618 
z
" clip-path="url(#p070aaeae91)" style="fill: #348abd; opacity: 0.003691"/>
   </g>
   <g id="patch_102">
    <path d="M 237.580752 75.678853 
C 223.601626 55.708673 203.808996 40.516873 180.903541 32.176357 
C 157.998085 23.83584 133.071254 22.744032 109.52428 29.04991 
" clip-path="url(#p070aaeae91)" style="fill: none; stroke: #000000; stroke-width: 1.5; stroke-linejoin: miter; stroke-linecap: square"/>
   </g>
   <g id="patch_103">
    <path d="M 140.256 257.85418 
C 170.501883 257.85418 199.513045 245.837363 220.900114 224.450294 
C 242.287183 203.063225 254.304 174.052063 254.304 143.80618 
C 254.304 113.560297 242.287183 84.549135 220.900114 63.162066 
C 199.513045 41.774997 170.501883 29.75818 140.256 29.75818 
C 110.010117 29.75818 80.998955 41.774997 59.611886 63.162066 
C 38.224817 84.549135 26.208 113.560297 26.208 143.80618 
C 26.208 174.052063 38.224817 203.063225 59.611886 224.450294 
C 80.998955 245.837363 110.010117 257.85418 140.256 257.85418 
L 140.256 257.85418 
z
" clip-path="url(#p070aaeae91)" style="fill: none; stroke-dasharray: 0.5,4; stroke-dashoffset: 2.5; stroke: #000000; stroke-width: 0.5; stroke-linejoin: miter"/>
   </g>
   <g id="line2d_1">
    <path d="M 140.256 143.80618 
L 273.312 143.80618 
" clip-path="url(#p070aaeae91)" style="fill: none; stroke: #000000; stroke-width: 0.5; stroke-linecap: square"/>
   </g>
   <g id="line2d_2">
    <path d="M 140.256 143.80618 
L 140.256 10.75018 
" clip-path="url(#p070aaeae91)" style="fill: none; stroke: #000000; stroke-width: 0.5; stroke-linecap: square"/>
   </g>
   <g id="patch_104">
    <path d="M 218.115802 89.304319 
L 210.057312 100.165761 
L 208.422256 97.829967 
L 141.073528 144.974077 
L 139.438472 142.638283 
L 206.787201 95.494173 
L 205.152145 93.158379 
z
" clip-path="url(#p070aaeae91)" style="stroke: #000000; stroke-width: 0.5; stroke-linejoin: miter; stroke-linecap: square"/>
   </g>
   <g id="text_1">
    <!-- $x$ -->
    <g transform="translate(268.56 153.31018) scale(0.12 -0.12)">
     <defs>
      <path id="CMMI12-78" d="M 3034 2624 
C 2829 2585 2752 2431 2752 2310 
C 2752 2156 2874 2105 2963 2105 
C 3155 2105 3290 2271 3290 2444 
C 3290 2694 2982 2816 2714 2816 
C 2323 2816 2106 2451 2048 2329 
C 1901 2790 1504 2816 1389 2816 
C 736 2816 390 1993 390 1849 
C 390 1823 416 1790 461 1790 
C 512 1790 525 1829 538 1855 
C 755 2572 1184 2687 1370 2687 
C 1658 2687 1715 2438 1715 2284 
C 1715 2143 1677 1993 1600 1678 
L 1382 778 
C 1286 390 1101 64 762 64 
C 730 64 570 64 435 126 
C 666 166 717 358 717 435 
C 717 563 621 640 499 640 
C 346 640 179 505 179 300 
C 179 57 480 -64 755 -64 
C 1062 -64 1280 153 1414 415 
C 1517 64 1837 -64 2074 -64 
C 2726 -64 3072 751 3072 896 
C 3072 929 3046 955 3008 955 
C 2950 955 2944 922 2925 870 
C 2752 300 2381 64 2093 64 
C 1869 64 1747 204 1747 467 
C 1747 607 1773 712 1875 1146 
L 2099 2039 
C 2195 2425 2413 2687 2707 2687 
C 2720 2687 2899 2687 3034 2624 
z
" transform="scale(0.015625)"/>
     </defs>
     <use xlink:href="#CMMI12-78" transform="scale(0.996264)"/>
    </g>
   </g>
   <g id="text_2">
    <!-- $y$ -->
    <g transform="translate(130.752 15.50218) scale(0.12 -0.12)">
     <defs>
      <path id="CMMI12-79" d="M 1683 -673 
C 1510 -921 1261 -1152 947 -1152 
C 870 -1152 563 -1139 467 -826 
C 486 -833 518 -833 531 -833 
C 723 -833 851 -666 851 -519 
C 851 -372 730 -320 634 -320 
C 531 -320 307 -397 307 -711 
C 307 -1050 582 -1280 947 -1280 
C 1587 -1280 2234 -673 2413 -7 
L 3040 2483 
C 3046 2515 3059 2553 3059 2591 
C 3059 2687 2982 2752 2886 2752 
C 2829 2752 2694 2726 2643 2534 
L 2170 657 
C 2138 542 2138 530 2086 459 
C 1958 281 1747 64 1440 64 
C 1082 64 1050 415 1050 587 
C 1050 951 1222 1443 1395 1902 
C 1466 2087 1504 2177 1504 2305 
C 1504 2573 1312 2816 998 2816 
C 410 2816 173 1890 173 1838 
C 173 1813 198 1781 243 1781 
C 301 1781 307 1807 333 1896 
C 486 2432 730 2687 979 2687 
C 1037 2687 1146 2687 1146 2477 
C 1146 2311 1075 2126 979 1883 
C 666 1047 666 836 666 683 
C 666 76 1101 -64 1421 -64 
C 1606 -64 1837 -7 2061 230 
L 2067 223 
C 1971 -141 1907 -359 1683 -673 
z
" transform="scale(0.015625)"/>
     </defs>
     <use xlink:href="#CMMI12-79" transform="scale(0.996264)"/>
    </g>
   </g>
   <g id="text_3">
    <!-- $\alpha$ -->
    <g transform="translate(173.308261 52.751236) scale(0.16 -0.16)">
     <defs>
      <path id="CMMI12-b" d="M 2963 1615 
C 2963 2234 2611 2816 1933 2816 
C 1094 2816 256 1902 256 996 
C 256 440 602 -64 1254 -64 
C 1651 -64 2125 89 2579 472 
C 2669 115 2867 -64 3142 -64 
C 3488 -64 3661 293 3661 376 
C 3661 434 3616 434 3597 434 
C 3546 434 3539 415 3520 364 
C 3462 204 3315 64 3162 64 
C 2963 64 2963 472 2963 862 
C 3616 1641 3770 2445 3770 2451 
C 3770 2509 3718 2509 3699 2509 
C 3642 2509 3635 2490 3610 2375 
C 3526 2094 3360 1596 2963 1072 
L 2963 1615 
z
M 2560 625 
C 1997 121 1491 64 1267 64 
C 813 64 685 466 685 766 
C 685 1040 826 1692 1024 2043 
C 1286 2490 1645 2687 1933 2687 
C 2554 2687 2554 1877 2554 1340 
C 2554 1181 2547 1015 2547 855 
C 2547 728 2554 696 2560 625 
z
" transform="scale(0.015625)"/>
     </defs>
     <use xlink:href="#CMMI12-b" transform="scale(0.996264)"/>
    </g>
   </g>
   <g id="text_4">
    <!-- $\vec{p}$ -->
    <g transform="translate(187.776 124.79818) scale(0.16 -0.16)">
     <defs>
      <path id="CMMI12-7e" d="M 3424 3840 
C 3347 3769 3110 3545 3110 3455 
C 3110 3391 3168 3334 3232 3334 
C 3290 3334 3315 3372 3360 3436 
C 3514 3628 3686 3750 3834 3833 
C 3898 3872 3942 3891 3942 3961 
C 3942 4019 3891 4051 3853 4083 
C 3674 4204 3629 4377 3610 4454 
C 3590 4505 3571 4582 3482 4582 
C 3443 4582 3366 4556 3366 4460 
C 3366 4403 3405 4249 3526 4076 
L 1376 4076 
C 1267 4076 1158 4076 1158 3955 
C 1158 3840 1274 3840 1376 3840 
L 3424 3840 
z
" transform="scale(0.015625)"/>
      <path id="CMMI12-70" d="M 275 -794 
C 230 -981 205 -1031 -58 -1031 
C -135 -1031 -199 -1031 -199 -1152 
C -199 -1165 -192 -1216 -122 -1216 
C -39 -1216 51 -1204 134 -1204 
L 410 -1204 
C 544 -1204 870 -1216 1005 -1216 
C 1043 -1216 1120 -1216 1120 -1101 
C 1120 -1031 1075 -1031 966 -1031 
C 672 -1031 653 -987 653 -937 
C 653 -863 941 217 979 364 
C 1050 185 1222 -64 1555 -64 
C 2278 -64 3059 874 3059 1813 
C 3059 2400 2726 2816 2246 2816 
C 1837 2816 1491 2419 1421 2330 
C 1370 2649 1120 2816 864 2816 
C 678 2816 531 2726 410 2483 
C 294 2253 205 1864 205 1838 
C 205 1813 230 1781 275 1781 
C 326 1781 333 1787 371 1934 
C 467 2311 589 2687 845 2687 
C 992 2687 1043 2585 1043 2394 
C 1043 2241 1024 2177 998 2062 
L 275 -794 
z
M 1382 1992 
C 1427 2170 1606 2356 1709 2445 
C 1779 2509 1990 2687 2234 2687 
C 2515 2687 2643 2407 2643 2075 
C 2643 1768 2464 1047 2304 715 
C 2144 370 1850 64 1555 64 
C 1120 64 1050 613 1050 638 
C 1050 657 1062 708 1069 740 
L 1382 1992 
z
" transform="scale(0.015625)"/>
     </defs>
     <use xlink:href="#CMMI12-7e" transform="translate(0.559243 0) scale(0.996264)"/>
     <use xlink:href="#CMMI12-70" transform="scale(0.996264)"/>
    </g>
   </g>
  </g>
 </g>
 <defs>
  <clipPath id="p070aaeae91">
   <rect x="7.2" y="10.75018" width="266.112" height="266.112"/>
  </clipPath>
 </defs>
</svg>
