<?xml version="1.0" encoding="utf-8" standalone="no"?>
<!DOCTYPE svg PUBLIC "-//W3C//DTD SVG 1.1//EN"
  "http://www.w3.org/Graphics/SVG/1.1/DTD/svg11.dtd">
<svg xmlns:xlink="http://www.w3.org/1999/xlink" width="371.52pt" height="256.515254pt" viewBox="0 0 371.52 256.515254" xmlns="http://www.w3.org/2000/svg" version="1.1">
 <metadata>
  <rdf:RDF xmlns:dc="http://purl.org/dc/elements/1.1/" xmlns:cc="http://creativecommons.org/ns#" xmlns:rdf="http://www.w3.org/1999/02/22-rdf-syntax-ns#">
   <cc:Work>
    <dc:type rdf:resource="http://purl.org/dc/dcmitype/StillImage"/>
    <dc:date>2024-10-25T16:03:44.437226</dc:date>
    <dc:format>image/svg+xml</dc:format>
    <dc:creator>
     <cc:Agent>
      <dc:title>Matplotlib v3.9.2, https://matplotlib.org/</dc:title>
     </cc:Agent>
    </dc:creator>
   </cc:Work>
  </rdf:RDF>
 </metadata>
 <defs>
  <style type="text/css">*{stroke-linejoin: round; stroke-linecap: butt}</style>
 </defs>
 <g id="figure_1">
  <g id="patch_1">
   <path d="M 0 256.515254 
L 371.52 256.515254 
L 371.52 0 
L 0 0 
z
" style="fill: #ffffff"/>
  </g>
  <g id="axes_1">
   <g id="patch_2">
    <path d="M 132.047545 207.806508 
C 132.5196 207.586465 132.989688 207.362224 133.457752 207.133813 
C 133.925816 206.905401 134.391837 206.672828 134.855761 206.43612 
L 94.96678 128.257627 
z
" clip-path="url(#p9f3d8fa42c)" style="fill: #348abd; opacity: 0.001845"/>
   </g>
   <g id="patch_3">
    <path d="M 134.801172 206.463949 
C 135.265261 206.227565 135.727236 205.987056 136.187043 205.742448 
C 136.646851 205.49784 137.104471 205.249145 137.559851 204.996391 
L 94.96678 128.257627 
z
" clip-path="url(#p9f3d8fa42c)" style="fill: #348abd; opacity: 0.003691"/>
   </g>
   <g id="patch_4">
    <path d="M 137.506267 205.026108 
C 137.961824 204.773672 138.415124 204.517185 138.866114 204.25668 
C 139.317105 203.996174 139.765768 203.731659 140.212049 203.463167 
L 94.96678 128.257627 
z
" clip-path="url(#p9f3d8fa42c)" style="fill: #348abd; opacity: 0.003691"/>
   </g>
   <g id="patch_5">
    <path d="M 140.159535 203.494736 
C 140.606004 203.226555 141.050077 202.954405 141.491701 202.678319 
C 141.933325 202.402232 142.372483 202.122221 142.809122 201.838316 
L 94.96678 128.257627 
z
" clip-path="url(#p9f3d8fa42c)" style="fill: #348abd; opacity: 0.007382"/>
   </g>
   <g id="patch_6">
    <path d="M 142.757742 201.871699 
C 143.194579 201.5881 143.628884 201.300618 144.060604 201.009287 
C 144.492324 200.717957 144.921442 200.422789 145.347907 200.123819 
L 94.96678 128.257627 
z
" clip-path="url(#p9f3d8fa42c)" style="fill: #348abd; opacity: 0.009227"/>
   </g>
   <g id="patch_7">
    <path d="M 145.297723 200.158975 
C 145.724397 199.860303 146.148404 199.557839 146.569693 199.251619 
C 146.990983 198.945399 147.409539 198.635435 147.82531 198.321764 
L 94.96678 128.257627 
z
" clip-path="url(#p9f3d8fa42c)" style="fill: #348abd; opacity: 0.014764"/>
   </g>
   <g id="patch_8">
    <path d="M 147.776383 198.35865 
C 148.192374 198.045269 148.605567 197.728192 149.015913 197.407456 
C 149.426259 197.08672 149.833742 196.762337 150.238313 196.434347 
L 94.96678 128.257627 
z
" clip-path="url(#p9f3d8fa42c)" style="fill: #348abd; opacity: 0.0203"/>
   </g>
   <g id="patch_9">
    <path d="M 150.190704 196.472917 
C 150.595504 196.14521 150.997379 195.813906 151.396282 195.479044 
C 151.795184 195.144182 152.191098 194.805777 152.583977 194.463867 
L 94.96678 128.257627 
z
" clip-path="url(#p9f3d8fa42c)" style="fill: #348abd; opacity: 0.027682"/>
   </g>
   <g id="patch_10">
    <path d="M 152.537742 194.504075 
C 152.930859 194.16244 153.320927 193.817312 153.7079 193.468733 
C 154.094873 193.120154 154.478736 192.768137 154.859442 192.412725 
L 94.96678 128.257627 
z
" clip-path="url(#p9f3d8fa42c)" style="fill: #348abd; opacity: 0.038754"/>
   </g>
   <g id="patch_11">
    <path d="M 154.814639 192.454522 
C 155.195594 192.099375 155.573379 191.740845 155.947951 191.378973 
C 156.322524 191.017101 156.693867 190.651902 157.061938 190.283419 
L 94.96678 128.257627 
z
" clip-path="url(#p9f3d8fa42c)" style="fill: #348abd; opacity: 0.053518"/>
   </g>
   <g id="patch_12">
    <path d="M 157.018621 190.326755 
C 157.386949 189.95853 157.751992 189.587033 158.113707 189.212309 
C 158.475421 188.837585 158.833793 188.459649 159.18878 188.078545 
L 94.96678 128.257627 
z
" clip-path="url(#p9f3d8fa42c)" style="fill: #348abd; opacity: 0.081815"/>
   </g>
   <g id="patch_13">
    <path d="M 159.147002 188.123366 
C 159.502255 187.742511 159.85411 187.3585 160.202527 186.971381 
C 160.550944 186.584262 160.895908 186.194049 161.237378 185.800789 
L 94.96678 128.257627 
z
" clip-path="url(#p9f3d8fa42c)" style="fill: #348abd; opacity: 0.118601"/>
   </g>
   <g id="patch_14">
    <path d="M 161.197189 185.84704 
C 161.538934 185.454018 161.877173 185.057962 162.211868 184.658919 
C 162.546562 184.259876 162.877697 183.857862 163.205235 183.452924 
L 94.96678 128.257627 
z
" clip-path="url(#p9f3d8fa42c)" style="fill: #348abd; opacity: 0.16366"/>
   </g>
   <g id="patch_15">
    <path d="M 163.166685 183.50055 
C 163.494505 183.095841 163.818716 182.688222 164.13928 182.277742 
C 164.459844 181.867261 164.776748 181.453935 165.089954 181.037813 
L 94.96678 128.257627 
z
" clip-path="url(#p9f3d8fa42c)" style="fill: #348abd; opacity: 0.229112"/>
   </g>
   <g id="patch_16">
    <path d="M 165.053089 181.086755 
C 165.366586 180.670852 165.676374 180.252167 165.982417 179.830748 
C 166.28846 179.40933 166.590746 178.985197 166.889239 178.558397 
L 94.96678 128.257627 
z
" clip-path="url(#p9f3d8fa42c)" style="fill: #348abd; opacity: 0.313403"/>
   </g>
   <g id="patch_17">
    <path d="M 166.854105 178.608596 
C 167.152895 178.182006 167.447883 177.752764 167.739032 177.320922 
C 168.030182 176.889079 168.317481 176.454654 168.600897 176.017698 
L 94.96678 128.257627 
z
" clip-path="url(#p9f3d8fa42c)" style="fill: #348abd; opacity: 0.413918"/>
   </g>
   <g id="patch_18">
    <path d="M 168.567536 176.069092 
C 168.851257 175.632334 169.131085 175.193058 169.406986 174.751318 
C 169.682887 174.309578 169.95485 173.865391 170.222844 173.41881 
L 94.96678 128.257627 
z
" clip-path="url(#p9f3d8fa42c)" style="fill: #348abd; opacity: 0.500038"/>
   </g>
   <g id="patch_19">
    <path d="M 170.191297 173.471338 
C 170.459602 173.024943 170.723929 172.57617 170.984245 172.12507 
C 171.244562 171.67397 171.500857 171.220562 171.753102 170.7649 
L 94.96678 128.257627 
z
" clip-path="url(#p9f3d8fa42c)" style="fill: #348abd; opacity: 0.584037"/>
   </g>
   <g id="patch_20">
    <path d="M 171.723408 170.818497 
C 171.975971 170.363011 172.224474 169.905286 172.468889 169.445376 
C 172.713304 168.985466 172.95362 168.52339 173.189809 168.059202 
L 94.96678 128.257627 
z
" clip-path="url(#p9f3d8fa42c)" style="fill: #348abd; opacity: 0.653057"/>
   </g>
   <g id="patch_21">
    <path d="M 173.162003 168.113802 
C 173.398516 167.649779 173.630893 167.18366 173.859109 166.715501 
C 174.087324 166.247341 174.311367 165.77716 174.531212 165.305012 
L 94.96678 128.257627 
z
" clip-path="url(#p9f3d8fa42c)" style="fill: #348abd; opacity: 0.726874"/>
   </g>
   <g id="patch_22">
    <path d="M 174.505329 165.360549 
C 174.725503 164.888555 174.941472 164.41461 175.15321 163.938771 
C 175.364948 163.462932 175.572445 162.985217 175.775679 162.505685 
L 94.96678 128.257627 
z
" clip-path="url(#p9f3d8fa42c)" style="fill: #348abd; opacity: 0.79331"/>
   </g>
   <g id="patch_23">
    <path d="M 175.751749 162.562092 
C 175.955318 162.082701 176.154614 161.601507 176.349616 161.118569 
C 176.544619 160.63563 176.735318 160.150965 176.921692 159.664632 
L 94.96678 128.257627 
z
" clip-path="url(#p9f3d8fa42c)" style="fill: #348abd; opacity: 0.848674"/>
   </g>
   <g id="patch_24">
    <path d="M 176.899746 159.721839 
C 177.08646 159.235636 177.268842 158.747781 177.446871 158.258331 
C 177.6249 157.768881 177.798568 157.277856 177.967856 156.785314 
L 94.96678 128.257627 
z
" clip-path="url(#p9f3d8fa42c)" style="fill: #348abd; opacity: 0.886198"/>
   </g>
   <g id="patch_25">
    <path d="M 177.94792 156.843253 
C 178.117551 156.35083 178.282796 155.856906 178.443635 155.361541 
C 178.604474 154.866176 178.760901 154.36939 178.912896 153.87124 
L 94.96678 128.257627 
z
" clip-path="url(#p9f3d8fa42c)" style="fill: #348abd; opacity: 0.91351"/>
   </g>
   <g id="patch_26">
    <path d="M 178.894994 153.929839 
C 179.047337 153.431796 179.195244 152.932407 179.338697 152.43173 
C 179.482149 151.931054 179.621143 151.42911 179.75566 150.92596 
L 94.96678 128.257627 
z
" clip-path="url(#p9f3d8fa42c)" style="fill: #348abd; opacity: 0.931719"/>
   </g>
   <g id="patch_27">
    <path d="M 179.739814 150.985148 
C 179.874683 150.482091 180.005071 149.977844 180.130963 149.472467 
C 180.256856 148.967089 180.378247 148.4606 180.495123 147.953062 
L 94.96678 128.257627 
z
" clip-path="url(#p9f3d8fa42c)" style="fill: #348abd; opacity: 0.949927"/>
   </g>
   <g id="patch_28">
    <path d="M 180.481352 148.012767 
C 180.598582 147.50531 180.711293 146.996819 180.819471 146.487356 
C 180.927649 145.977892 181.03129 145.467476 181.130382 144.956168 
L 94.96678 128.257627 
z
" clip-path="url(#p9f3d8fa42c)" style="fill: #348abd; opacity: 0.959031"/>
   </g>
   <g id="patch_29">
    <path d="M 181.118703 145.016317 
C 181.218152 144.505078 181.313048 143.992964 181.40338 143.480035 
C 181.493712 142.967107 181.579477 142.453384 181.660664 141.938929 
L 94.96678 128.257627 
z
" clip-path="url(#p9f3d8fa42c)" style="fill: #348abd; opacity: 0.972687"/>
   </g>
   <g id="patch_30">
    <path d="M 181.651092 141.999449 
C 181.732638 141.485051 181.809603 140.969937 181.88198 140.454168 
C 181.954356 139.9384 182.02214 139.421997 182.085323 138.905022 
L 94.96678 128.257627 
z
" clip-path="url(#p9f3d8fa42c)" style="fill: #348abd; opacity: 0.97724"/>
   </g>
   <g id="patch_31">
    <path d="M 182.077869 138.965839 
C 182.141413 138.448908 182.200354 137.931422 182.254686 137.413442 
C 182.309019 136.895461 182.358739 136.377008 182.403841 135.858142 
L 94.96678 128.257627 
z
" clip-path="url(#p9f3d8fa42c)" style="fill: #348abd; opacity: 0.981792"/>
   </g>
   <g id="patch_32">
    <path d="M 182.398514 135.919183 
C 182.443979 135.400349 182.484825 134.881121 182.521046 134.36156 
C 182.557268 133.841999 182.588864 133.322126 182.615831 132.802003 
L 94.96678 128.257627 
z
" clip-path="url(#p9f3d8fa42c)" style="fill: #348abd; opacity: 0.986344"/>
   </g>
   <g id="patch_33">
    <path d="M 182.612637 132.863192 
C 182.639968 132.343088 182.662668 131.82275 182.680735 131.302242 
C 182.698802 130.781733 182.712236 130.261074 182.721034 129.740327 
L 94.96678 128.257627 
z
" clip-path="url(#p9f3d8fa42c)" style="fill: #348abd; opacity: 0.990896"/>
   </g>
   <g id="patch_34">
    <path d="M 182.719978 129.80159 
C 182.72914 129.280849 182.733667 128.760036 182.733557 128.239214 
C 182.733448 127.718392 182.728703 127.197582 182.719322 126.676844 
L 94.96678 128.257627 
z
" clip-path="url(#p9f3d8fa42c)" style="fill: #348abd; opacity: 0.990896"/>
   </g>
   <g id="patch_35">
    <path d="M 182.720404 126.738107 
C 182.711387 126.217363 182.697735 125.69671 182.67945 125.176209 
C 182.661164 124.655708 182.638246 124.13538 182.610697 123.615288 
L 94.96678 128.257627 
z
" clip-path="url(#p9f3d8fa42c)" style="fill: #348abd; opacity: 0.995448"/>
   </g>
   <g id="patch_36">
    <path d="M 182.613917 123.676476 
C 182.586732 123.156364 182.554917 122.636504 182.518478 122.116958 
C 182.482038 121.597413 182.440974 121.078202 182.395292 120.559387 
L 94.96678 128.257627 
z
" clip-path="url(#p9f3d8fa42c)" style="fill: #348abd; opacity: 0.995448"/>
   </g>
   <g id="patch_37">
    <path d="M 182.400645 120.620425 
C 182.355324 120.101579 182.305387 119.583146 182.250837 119.065189 
C 182.196288 118.547231 182.137129 118.02977 182.073368 117.512865 
L 94.96678 128.257627 
z
" clip-path="url(#p9f3d8fa42c)" style="fill: #348abd"/>
   </g>
   <g id="patch_38">
    <path d="M 182.080848 117.57368 
C 182.017448 117.056731 181.949447 116.540357 181.876855 116.024619 
C 181.804262 115.508881 181.72708 114.993799 181.645318 114.479435 
L 94.96678 128.257627 
z
" clip-path="url(#p9f3d8fa42c)" style="fill: #348abd"/>
   </g>
   <g id="patch_39">
    <path d="M 181.654916 114.539951 
C 181.573513 114.02553 181.487533 113.511844 181.396985 112.998953 
C 181.306438 112.486063 181.211327 111.973988 181.111664 111.462791 
L 94.96678 128.257627 
z
" clip-path="url(#p9f3d8fa42c)" style="fill: #348abd"/>
   </g>
   <g id="patch_40">
    <path d="M 181.123368 111.522935 
C 181.024062 111.011668 180.920206 110.501296 180.811814 109.991878 
C 180.703423 109.482459 180.590498 108.974016 180.473055 108.466609 
L 94.96678 128.257627 
z
" clip-path="url(#p9f3d8fa42c)" style="fill: #348abd"/>
   </g>
   <g id="patch_41">
    <path d="M 180.486851 108.526308 
C 180.369763 108.018818 180.248159 107.512381 180.122055 107.007056 
C 179.99595 106.501731 179.865351 105.997539 179.730271 105.494539 
L 94.96678 128.257627 
z
" clip-path="url(#p9f3d8fa42c)" style="fill: #348abd"/>
   </g>
   <g id="patch_42">
    <path d="M 179.746142 105.55372 
C 179.611413 105.050626 179.472209 104.548741 179.328546 104.048125 
C 179.184883 103.547509 179.036767 103.048182 178.884215 102.550202 
L 94.96678 128.257627 
z
" clip-path="url(#p9f3d8fa42c)" style="fill: #348abd"/>
   </g>
   <g id="patch_43">
    <path d="M 178.902141 102.608794 
C 178.749937 102.110708 178.593302 101.613987 178.432256 101.11869 
C 178.271209 100.623392 178.105757 100.129538 177.935918 99.637186 
L 94.96678 128.257627 
z
" clip-path="url(#p9f3d8fa42c)" style="fill: #348abd"/>
   </g>
   <g id="patch_44">
    <path d="M 177.955879 99.695117 
C 177.786384 99.202646 177.61251 98.711694 177.434276 98.222319 
C 177.256041 97.732944 177.073454 97.245165 176.886537 96.75904 
L 94.96678 128.257627 
z
" clip-path="url(#p9f3d8fa42c)" style="fill: #348abd"/>
   </g>
   <g id="patch_45">
    <path d="M 176.908507 96.816238 
C 176.721929 96.329983 176.531026 95.845398 176.335821 95.362541 
C 176.140617 94.879685 175.941118 94.398575 175.737349 93.91927 
L 94.96678 128.257627 
z
" clip-path="url(#p9f3d8fa42c)" style="fill: #348abd"/>
   </g>
   <g id="patch_46">
    <path d="M 175.761302 93.975666 
C 175.557867 93.496219 175.350169 93.018592 175.138232 92.542842 
C 174.926294 92.067092 174.710127 91.593237 174.489754 91.121335 
L 94.96678 128.257627 
z
" clip-path="url(#p9f3d8fa42c)" style="fill: #348abd"/>
   </g>
   <g id="patch_47">
    <path d="M 174.515661 91.176862 
C 174.295618 90.704806 174.071377 90.234719 173.842965 89.766655 
C 173.614554 89.298591 173.38198 88.83257 173.145273 88.368646 
L 94.96678 128.257627 
z
" clip-path="url(#p9f3d8fa42c)" style="fill: #348abd"/>
   </g>
   <g id="patch_48">
    <path d="M 173.173102 88.423235 
C 172.936718 87.959146 172.696208 87.497171 172.451601 87.037363 
C 172.206993 86.577556 171.958297 86.119935 171.705543 85.664555 
L 94.96678 128.257627 
z
" clip-path="url(#p9f3d8fa42c)" style="fill: #348abd"/>
   </g>
   <g id="patch_49">
    <path d="M 171.73526 85.718139 
C 171.482824 85.262583 171.226338 84.809283 170.965832 84.358292 
C 170.705327 83.907302 170.440812 83.458639 170.172319 83.012358 
L 94.96678 128.257627 
z
" clip-path="url(#p9f3d8fa42c)" style="fill: #348abd"/>
   </g>
   <g id="patch_50">
    <path d="M 170.203888 83.064872 
C 169.935707 82.618403 169.663557 82.17433 169.387471 81.732706 
C 169.111385 81.291082 168.831373 80.851924 168.547469 80.415284 
L 94.96678 128.257627 
z
" clip-path="url(#p9f3d8fa42c)" style="fill: #348abd"/>
   </g>
   <g id="patch_51">
    <path d="M 168.580851 80.466665 
C 168.297252 80.029827 168.00977 79.595523 167.71844 79.163803 
C 167.427109 78.732083 167.131942 78.302965 166.832972 77.8765 
L 94.96678 128.257627 
z
" clip-path="url(#p9f3d8fa42c)" style="fill: #348abd"/>
   </g>
   <g id="patch_52">
    <path d="M 166.868127 77.926684 
C 166.569455 77.50001 166.266992 77.076003 165.960772 76.654713 
C 165.654552 76.233424 165.344588 75.814868 165.030917 75.399096 
L 94.96678 128.257627 
z
" clip-path="url(#p9f3d8fa42c)" style="fill: #348abd"/>
   </g>
   <g id="patch_53">
    <path d="M 165.067802 75.448023 
C 164.754422 75.032033 164.437344 74.61884 164.116608 74.208494 
C 163.795872 73.798148 163.47149 73.390665 163.1435 72.986093 
L 94.96678 128.257627 
z
" clip-path="url(#p9f3d8fa42c)" style="fill: #348abd"/>
   </g>
   <g id="patch_54">
    <path d="M 163.18207 73.033703 
C 162.854362 72.628903 162.523058 72.227027 162.188197 71.828125 
C 161.853335 71.429222 161.514929 71.033308 161.17302 70.64043 
L 94.96678 128.257627 
z
" clip-path="url(#p9f3d8fa42c)" style="fill: #348abd"/>
   </g>
   <g id="patch_55">
    <path d="M 161.213228 70.686665 
C 160.871593 70.293548 160.526465 69.90348 160.177886 69.516507 
C 159.829307 69.129534 159.47729 68.745671 159.121877 68.364964 
L 94.96678 128.257627 
z
" clip-path="url(#p9f3d8fa42c)" style="fill: #348abd"/>
   </g>
   <g id="patch_56">
    <path d="M 159.163675 68.409768 
C 158.808528 68.028813 158.449997 67.651027 158.088125 67.276455 
C 157.726253 66.901883 157.361055 66.53054 156.992572 66.162469 
L 94.96678 128.257627 
z
" clip-path="url(#p9f3d8fa42c)" style="fill: #348abd"/>
   </g>
   <g id="patch_57">
    <path d="M 157.035908 66.205786 
C 156.667682 65.837458 156.296185 65.472415 155.921461 65.1107 
C 155.546738 64.748985 155.168801 64.390613 154.787698 64.035627 
L 94.96678 128.257627 
z
" clip-path="url(#p9f3d8fa42c)" style="fill: #348abd"/>
   </g>
   <g id="patch_58">
    <path d="M 154.832519 64.077405 
C 154.451663 63.722152 154.067653 63.370297 153.680534 63.02188 
C 153.293414 62.673463 152.903201 62.328499 152.509941 61.987029 
L 94.96678 128.257627 
z
" clip-path="url(#p9f3d8fa42c)" style="fill: #348abd"/>
   </g>
   <g id="patch_59">
    <path d="M 152.556193 62.027218 
C 152.163171 61.685473 151.767115 61.347233 151.368072 61.012539 
C 150.969029 60.677845 150.567015 60.346709 150.162077 60.019172 
L 94.96678 128.257627 
z
" clip-path="url(#p9f3d8fa42c)" style="fill: #348abd"/>
   </g>
   <g id="patch_60">
    <path d="M 150.209703 60.057722 
C 149.804994 59.729902 149.397375 59.40569 148.986894 59.085126 
C 148.576413 58.764562 148.163088 58.447659 147.746966 58.134453 
L 94.96678 128.257627 
z
" clip-path="url(#p9f3d8fa42c)" style="fill: #348abd"/>
   </g>
   <g id="patch_61">
    <path d="M 147.795908 58.171317 
C 147.380005 57.857821 146.961319 57.548033 146.539901 57.24199 
C 146.118483 56.935947 145.694349 56.633661 145.26755 56.335168 
L 94.96678 128.257627 
z
" clip-path="url(#p9f3d8fa42c)" style="fill: #348abd"/>
   </g>
   <g id="patch_62">
    <path d="M 145.317749 56.370302 
C 144.891158 56.071511 144.461916 55.776524 144.030074 55.485374 
C 143.598232 55.194225 143.163807 54.906925 142.72685 54.62351 
L 94.96678 128.257627 
z
" clip-path="url(#p9f3d8fa42c)" style="fill: #348abd"/>
   </g>
   <g id="patch_63">
    <path d="M 142.778245 54.65687 
C 142.341486 54.37315 141.902211 54.093322 141.460471 53.817421 
C 141.018731 53.54152 140.574544 53.269557 140.127963 53.001563 
L 94.96678 128.257627 
z
" clip-path="url(#p9f3d8fa42c)" style="fill: #348abd"/>
   </g>
   <g id="patch_64">
    <path d="M 140.18049 53.03311 
C 139.734096 52.764805 139.285322 52.500478 138.834223 52.240162 
C 138.383123 51.979845 137.929715 51.723549 137.474053 51.471304 
L 94.96678 128.257627 
z
" clip-path="url(#p9f3d8fa42c)" style="fill: #348abd"/>
   </g>
   <g id="patch_65">
    <path d="M 137.527649 51.500999 
C 137.072163 51.248436 136.614438 50.999932 136.154528 50.755518 
C 135.694619 50.511103 135.232542 50.270787 134.768354 50.034598 
L 94.96678 128.257627 
z
" clip-path="url(#p9f3d8fa42c)" style="fill: #348abd"/>
   </g>
   <g id="patch_66">
    <path d="M 134.822955 50.062404 
C 134.358932 49.825891 133.892813 49.593513 133.424653 49.365298 
C 132.956494 49.137083 132.486312 48.91304 132.014164 48.693195 
L 94.96678 128.257627 
z
" clip-path="url(#p9f3d8fa42c)" style="fill: #348abd"/>
   </g>
   <g id="patch_67">
    <path d="M 132.069702 48.719078 
C 131.597707 48.498903 131.123762 48.282934 130.647923 48.071197 
C 130.172084 47.859459 129.69437 47.651961 129.214837 47.448728 
L 94.96678 128.257627 
z
" clip-path="url(#p9f3d8fa42c)" style="fill: #348abd"/>
   </g>
   <g id="patch_68">
    <path d="M 129.271244 47.472657 
C 128.791853 47.269089 128.31066 47.069792 127.827721 46.87479 
C 127.344783 46.679788 126.860118 46.489089 126.373784 46.302715 
L 94.96678 128.257627 
z
" clip-path="url(#p9f3d8fa42c)" style="fill: #348abd; opacity: 0.995448"/>
   </g>
   <g id="patch_69">
    <path d="M 126.430992 46.324661 
C 125.944789 46.137947 125.456933 45.955565 124.967483 45.777536 
C 124.478033 45.599507 123.987008 45.425839 123.494467 45.256551 
L 94.96678 128.257627 
z
" clip-path="url(#p9f3d8fa42c)" style="fill: #348abd; opacity: 0.995448"/>
   </g>
   <g id="patch_70">
    <path d="M 123.552406 45.276487 
C 123.059982 45.106855 122.566059 44.94161 122.070694 44.780771 
C 121.575329 44.619932 121.078542 44.463506 120.580393 44.311511 
L 94.96678 128.257627 
z
" clip-path="url(#p9f3d8fa42c)" style="fill: #348abd; opacity: 0.990896"/>
   </g>
   <g id="patch_71">
    <path d="M 120.638992 44.329413 
C 120.140949 44.17707 119.641559 44.029163 119.140883 43.88571 
C 118.640206 43.742257 118.138263 43.603264 117.635112 43.468746 
L 94.96678 128.257627 
z
" clip-path="url(#p9f3d8fa42c)" style="fill: #348abd; opacity: 0.990896"/>
   </g>
   <g id="patch_72">
    <path d="M 117.694301 43.484592 
C 117.191244 43.349724 116.686997 43.219336 116.181619 43.093443 
C 115.676241 42.967551 115.169753 42.84616 114.662214 42.729284 
L 94.96678 128.257627 
z
" clip-path="url(#p9f3d8fa42c)" style="fill: #348abd; opacity: 0.986344"/>
   </g>
   <g id="patch_73">
    <path d="M 114.721919 42.743055 
C 114.214462 42.625825 113.705972 42.513114 113.196508 42.404936 
C 112.687045 42.296758 112.176629 42.193117 111.66532 42.094025 
L 94.96678 128.257627 
z
" clip-path="url(#p9f3d8fa42c)" style="fill: #348abd; opacity: 0.981792"/>
   </g>
   <g id="patch_74">
    <path d="M 111.72547 42.105704 
C 111.21423 42.006255 110.702116 41.911359 110.189188 41.821027 
C 109.676259 41.730694 109.162537 41.64493 108.648081 41.563743 
L 94.96678 128.257627 
z
" clip-path="url(#p9f3d8fa42c)" style="fill: #348abd; opacity: 0.97724"/>
   </g>
   <g id="patch_75">
    <path d="M 108.708602 41.573315 
C 108.194203 41.491769 107.679089 41.414803 107.163321 41.342427 
C 106.647552 41.270051 106.13115 41.202267 105.614174 41.139084 
L 94.96678 128.257627 
z
" clip-path="url(#p9f3d8fa42c)" style="fill: #348abd; opacity: 0.972687"/>
   </g>
   <g id="patch_76">
    <path d="M 105.674992 41.146538 
C 105.158061 41.082994 104.640574 41.024052 104.122594 40.96972 
C 103.604614 40.915388 103.08616 40.865668 102.567295 40.820565 
L 94.96678 128.257627 
z
" clip-path="url(#p9f3d8fa42c)" style="fill: #348abd; opacity: 0.959031"/>
   </g>
   <g id="patch_77">
    <path d="M 102.628336 40.825893 
C 102.109502 40.780428 101.590274 40.739582 101.070713 40.70336 
C 100.551152 40.667139 100.031279 40.635542 99.511155 40.608575 
L 94.96678 128.257627 
z
" clip-path="url(#p9f3d8fa42c)" style="fill: #348abd; opacity: 0.949927"/>
   </g>
   <g id="patch_78">
    <path d="M 99.572345 40.611769 
C 99.05224 40.584439 98.531903 40.561739 98.011394 40.543672 
C 97.490886 40.525605 96.970227 40.512171 96.449479 40.503372 
L 94.96678 128.257627 
z
" clip-path="url(#p9f3d8fa42c)" style="fill: #348abd; opacity: 0.931719"/>
   </g>
   <g id="patch_79">
    <path d="M 96.510743 40.504429 
C 95.990002 40.495267 95.469189 40.49074 94.948367 40.490849 
C 94.427545 40.490959 93.906734 40.495704 93.385997 40.505084 
L 94.96678 128.257627 
z
" clip-path="url(#p9f3d8fa42c)" style="fill: #348abd; opacity: 0.91351"/>
   </g>
   <g id="patch_80">
    <path d="M 93.44726 40.504002 
C 92.926516 40.513019 92.405863 40.526672 91.885362 40.544957 
C 91.364861 40.563243 90.844533 40.586161 90.32444 40.61371 
L 94.96678 128.257627 
z
" clip-path="url(#p9f3d8fa42c)" style="fill: #348abd; opacity: 0.886198"/>
   </g>
   <g id="patch_81">
    <path d="M 90.385628 40.61049 
C 89.865516 40.637675 89.345656 40.66949 88.826111 40.705929 
C 88.306565 40.742369 87.787354 40.783433 87.268539 40.829115 
L 94.96678 128.257627 
z
" clip-path="url(#p9f3d8fa42c)" style="fill: #348abd; opacity: 0.848674"/>
   </g>
   <g id="patch_82">
    <path d="M 87.329578 40.823762 
C 86.810732 40.869082 86.292299 40.91902 85.774341 40.97357 
C 85.256384 41.028119 84.738922 41.087278 84.222018 41.151039 
L 94.96678 128.257627 
z
" clip-path="url(#p9f3d8fa42c)" style="fill: #348abd; opacity: 0.79331"/>
   </g>
   <g id="patch_83">
    <path d="M 84.282832 41.143559 
C 83.765884 41.206959 83.24951 41.27496 82.733771 41.347552 
C 82.218033 41.420145 81.702951 41.497327 81.188587 41.579089 
L 94.96678 128.257627 
z
" clip-path="url(#p9f3d8fa42c)" style="fill: #348abd; opacity: 0.726874"/>
   </g>
   <g id="patch_84">
    <path d="M 81.249104 41.569491 
C 80.734683 41.650894 80.220996 41.736874 79.708106 41.827421 
C 79.195215 41.917969 78.683141 42.01308 78.171943 42.112743 
L 94.96678 128.257627 
z
" clip-path="url(#p9f3d8fa42c)" style="fill: #348abd; opacity: 0.653057"/>
   </g>
   <g id="patch_85">
    <path d="M 78.232088 42.101039 
C 77.720821 42.200345 77.210448 42.3042 76.70103 42.412592 
C 76.191612 42.520984 75.683169 42.633908 75.175761 42.751351 
L 94.96678 128.257627 
z
" clip-path="url(#p9f3d8fa42c)" style="fill: #348abd; opacity: 0.584037"/>
   </g>
   <g id="patch_86">
    <path d="M 75.235461 42.737555 
C 74.727971 42.854644 74.221533 42.976248 73.716209 43.102352 
C 73.210884 43.228456 72.706691 43.359056 72.203691 43.494136 
L 94.96678 128.257627 
z
" clip-path="url(#p9f3d8fa42c)" style="fill: #348abd; opacity: 0.500038"/>
   </g>
   <g id="patch_87">
    <path d="M 72.262873 43.478265 
C 71.759779 43.612994 71.257894 43.752198 70.757278 43.895861 
C 70.256662 44.039524 69.757334 44.18764 69.259355 44.340192 
L 94.96678 128.257627 
z
" clip-path="url(#p9f3d8fa42c)" style="fill: #348abd; opacity: 0.413918"/>
   </g>
   <g id="patch_88">
    <path d="M 69.317946 44.322265 
C 68.819861 44.47447 68.32314 44.631104 67.827842 44.792151 
C 67.332545 44.953198 66.838691 45.11865 66.346339 45.288488 
L 94.96678 128.257627 
z
" clip-path="url(#p9f3d8fa42c)" style="fill: #348abd; opacity: 0.313403"/>
   </g>
   <g id="patch_89">
    <path d="M 66.404269 45.268528 
C 65.911799 45.438022 65.420847 45.611897 64.931471 45.790131 
C 64.442096 45.968366 63.954317 46.150952 63.468192 46.33787 
L 94.96678 128.257627 
z
" clip-path="url(#p9f3d8fa42c)" style="fill: #348abd; opacity: 0.229112"/>
   </g>
   <g id="patch_90">
    <path d="M 63.525391 46.3159 
C 63.039136 46.502478 62.554551 46.693381 62.071694 46.888585 
C 61.588837 47.08379 61.107728 47.283289 60.628422 47.487058 
L 94.96678 128.257627 
z
" clip-path="url(#p9f3d8fa42c)" style="fill: #348abd; opacity: 0.16366"/>
   </g>
   <g id="patch_91">
    <path d="M 60.684819 47.463105 
C 60.205372 47.66654 59.727744 47.874238 59.251994 48.086175 
C 58.776244 48.298112 58.30239 48.51428 57.830488 48.734653 
L 94.96678 128.257627 
z
" clip-path="url(#p9f3d8fa42c)" style="fill: #348abd; opacity: 0.118601"/>
   </g>
   <g id="patch_92">
    <path d="M 57.886015 48.708746 
C 57.413959 48.928789 56.943871 49.15303 56.475807 49.381441 
C 56.007744 49.609853 55.541722 49.842426 55.077799 50.079134 
L 94.96678 128.257627 
z
" clip-path="url(#p9f3d8fa42c)" style="fill: #348abd; opacity: 0.081815"/>
   </g>
   <g id="patch_93">
    <path d="M 55.132387 50.051305 
C 54.668298 50.287689 54.206323 50.528199 53.746516 50.772806 
C 53.286709 51.017414 52.829088 51.266109 52.373708 51.518863 
L 94.96678 128.257627 
z
" clip-path="url(#p9f3d8fa42c)" style="fill: #348abd; opacity: 0.053518"/>
   </g>
   <g id="patch_94">
    <path d="M 52.427292 51.489147 
C 51.971736 51.741583 51.518435 51.998069 51.067445 52.258574 
C 50.616454 52.51908 50.167792 52.783595 49.72151 53.052087 
L 94.96678 128.257627 
z
" clip-path="url(#p9f3d8fa42c)" style="fill: #348abd; opacity: 0.038754"/>
   </g>
   <g id="patch_95">
    <path d="M 49.774025 53.020519 
C 49.327556 53.2887 48.883483 53.560849 48.441858 53.836936 
C 48.000234 54.113022 47.561076 54.393034 47.124437 54.676938 
L 94.96678 128.257627 
z
" clip-path="url(#p9f3d8fa42c)" style="fill: #348abd; opacity: 0.027682"/>
   </g>
   <g id="patch_96">
    <path d="M 47.175818 54.643555 
C 46.73898 54.927155 46.304675 55.214637 45.872956 55.505967 
C 45.441236 55.797298 45.012117 56.092465 44.585652 56.391435 
L 94.96678 128.257627 
z
" clip-path="url(#p9f3d8fa42c)" style="fill: #348abd; opacity: 0.0203"/>
   </g>
   <g id="patch_97">
    <path d="M 44.635836 56.35628 
C 44.209162 56.654951 43.785155 56.957415 43.363866 57.263635 
C 42.942576 57.569855 42.524021 57.879819 42.108249 58.19349 
L 94.96678 128.257627 
z
" clip-path="url(#p9f3d8fa42c)" style="fill: #348abd; opacity: 0.014764"/>
   </g>
   <g id="patch_98">
    <path d="M 42.157176 58.156605 
C 41.741185 58.469985 41.327992 58.787062 40.917646 59.107798 
C 40.5073 59.428535 40.099817 59.752917 39.695246 60.080907 
L 94.96678 128.257627 
z
" clip-path="url(#p9f3d8fa42c)" style="fill: #348abd; opacity: 0.009227"/>
   </g>
   <g id="patch_99">
    <path d="M 39.742856 60.042337 
C 39.338055 60.370044 38.93618 60.701349 38.537277 61.03621 
C 38.138375 61.371072 37.742461 61.709478 37.349583 62.051387 
L 94.96678 128.257627 
z
" clip-path="url(#p9f3d8fa42c)" style="fill: #348abd; opacity: 0.007382"/>
   </g>
   <g id="patch_100">
    <path d="M 37.395817 62.011179 
C 37.0027 62.352814 36.612632 62.697942 36.225659 63.046521 
C 35.838686 63.3951 35.454823 63.747117 35.074117 64.102529 
L 94.96678 128.257627 
z
" clip-path="url(#p9f3d8fa42c)" style="fill: #348abd; opacity: 0.003691"/>
   </g>
   <g id="patch_101">
    <path d="M 35.11892 64.060732 
C 34.737966 64.415879 34.36018 64.774409 33.985608 65.136281 
C 33.611036 65.498153 33.239692 65.863352 32.871621 66.231835 
L 94.96678 128.257627 
z
" clip-path="url(#p9f3d8fa42c)" style="fill: #348abd; opacity: 0.003691"/>
   </g>
   <g id="patch_102">
    <path d="M 322.804269 53.66642 
C 322.361632 53.391959 321.916562 53.121443 321.46911 52.854905 
C 321.021659 52.588367 320.571843 52.325818 320.119718 52.067287 
L 276.55322 128.257627 
z
" clip-path="url(#p9f3d8fa42c)" style="fill: #348abd; opacity: 0.001845"/>
   </g>
   <g id="patch_103">
    <path d="M 320.172898 52.097721 
C 319.720953 51.838875 319.266713 51.584057 318.810232 51.333297 
C 318.353751 51.082537 317.895046 50.835845 317.434174 50.593251 
L 276.55322 128.257627 
z
" clip-path="url(#p9f3d8fa42c)" style="fill: #348abd; opacity: 0.003691"/>
   </g>
   <g id="patch_104">
    <path d="M 317.488384 50.621811 
C 317.02768 50.378895 316.564824 50.140085 316.09987 49.905409 
C 315.634915 49.670733 315.167881 49.4402 314.698823 49.213838 
L 276.55322 128.257627 
z
" clip-path="url(#p9f3d8fa42c)" style="fill: #348abd; opacity: 0.003691"/>
   </g>
   <g id="patch_105">
    <path d="M 314.753996 49.240488 
C 314.285096 49.013798 313.814187 48.791287 313.341326 48.572981 
C 312.868465 48.354674 312.393669 48.140581 311.916997 47.930727 
L 276.55322 128.257627 
z
" clip-path="url(#p9f3d8fa42c)" style="fill: #348abd; opacity: 0.007382"/>
   </g>
   <g id="patch_106">
    <path d="M 311.973067 47.955435 
C 311.496541 47.745248 311.018154 47.539307 310.537961 47.337636 
C 310.057769 47.135965 309.575792 46.938572 309.092086 46.745482 
L 276.55322 128.257627 
z
" clip-path="url(#p9f3d8fa42c)" style="fill: #348abd; opacity: 0.009227"/>
   </g>
   <g id="patch_107">
    <path d="M 309.148984 46.768218 
C 308.665413 46.57479 308.18013 46.385669 307.693192 46.20088 
C 307.206254 46.01609 306.717681 45.835639 306.227531 45.659547 
L 276.55322 128.257627 
z
" clip-path="url(#p9f3d8fa42c)" style="fill: #348abd; opacity: 0.014764"/>
   </g>
   <g id="patch_108">
    <path d="M 306.285188 45.680283 
C 305.795161 45.503849 305.303573 45.33178 304.810483 45.164097 
C 304.317393 44.996414 303.82282 44.833123 303.326823 44.674245 
L 276.55322 128.257627 
z
" clip-path="url(#p9f3d8fa42c)" style="fill: #348abd; opacity: 0.0203"/>
   </g>
   <g id="patch_109">
    <path d="M 303.385169 44.692957 
C 302.889283 44.533732 302.391989 44.378924 301.893347 44.228551 
C 301.394705 44.078179 300.894735 43.932248 300.393495 43.790776 
L 276.55322 128.257627 
z
" clip-path="url(#p9f3d8fa42c)" style="fill: #348abd; opacity: 0.027682"/>
   </g>
   <g id="patch_110">
    <path d="M 300.452458 43.80744 
C 299.951317 43.665619 299.448924 43.52826 298.945338 43.395382 
C 298.441752 43.262503 297.936993 43.13411 297.431122 43.010217 
L 276.55322 128.257627 
z
" clip-path="url(#p9f3d8fa42c)" style="fill: #348abd; opacity: 0.038754"/>
   </g>
   <g id="patch_111">
    <path d="M 297.490631 43.024814 
C 296.984845 42.900568 296.477965 42.780827 295.970048 42.665604 
C 295.462131 42.550381 294.953199 42.439682 294.443312 42.33352 
L 276.55322 128.257627 
z
" clip-path="url(#p9f3d8fa42c)" style="fill: #348abd; opacity: 0.053518"/>
   </g>
   <g id="patch_112">
    <path d="M 294.503294 42.34603 
C 293.993481 42.239512 293.48273 42.137533 292.971101 42.040107 
C 292.459473 41.942681 291.946987 41.84981 291.433705 41.761507 
L 276.55322 128.257627 
z
" clip-path="url(#p9f3d8fa42c)" style="fill: #348abd; opacity: 0.081815"/>
   </g>
   <g id="patch_113">
    <path d="M 291.494088 41.771917 
C 290.980868 41.683255 290.466869 41.599164 289.952152 41.519652 
C 289.437435 41.440141 288.92202 41.365213 288.40597 41.294877 
L 276.55322 128.257627 
z
" clip-path="url(#p9f3d8fa42c)" style="fill: #348abd; opacity: 0.118601"/>
   </g>
   <g id="patch_114">
    <path d="M 288.466678 41.303173 
C 287.950677 41.232476 287.434056 41.166375 286.916878 41.104875 
C 286.3997 41.043375 285.881984 40.98648 285.363793 40.934197 
L 276.55322 128.257627 
z
" clip-path="url(#p9f3d8fa42c)" style="fill: #348abd; opacity: 0.16366"/>
   </g>
   <g id="patch_115">
    <path d="M 285.424754 40.940369 
C 284.9066 40.887724 284.387987 40.839692 283.868977 40.79628 
C 283.349968 40.752867 282.830582 40.714075 282.310882 40.679908 
L 276.55322 128.257627 
z
" clip-path="url(#p9f3d8fa42c)" style="fill: #348abd; opacity: 0.229112"/>
   </g>
   <g id="patch_116">
    <path d="M 282.372021 40.683949 
C 281.852345 40.649419 281.332372 40.619516 280.812164 40.594242 
C 280.291955 40.568969 279.771532 40.548327 279.250956 40.532318 
L 276.55322 128.257627 
z
" clip-path="url(#p9f3d8fa42c)" style="fill: #348abd; opacity: 0.313403"/>
   </g>
   <g id="patch_117">
    <path d="M 279.3122 40.534223 
C 278.791635 40.517851 278.270935 40.506112 277.750161 40.49901 
C 277.229388 40.491907 276.708561 40.48944 276.187744 40.491608 
L 276.55322 128.257627 
z
" clip-path="url(#p9f3d8fa42c)" style="fill: #348abd; opacity: 0.413918"/>
   </g>
   <g id="patch_118">
    <path d="M 276.249016 40.491375 
C 275.728197 40.49318 275.207405 40.499621 274.686701 40.510697 
C 274.165996 40.521773 273.645401 40.537484 273.124977 40.557828 
L 276.55322 128.257627 
z
" clip-path="url(#p9f3d8fa42c)" style="fill: #348abd; opacity: 0.500038"/>
   </g>
   <g id="patch_119">
    <path d="M 273.186203 40.555456 
C 272.665765 40.575436 272.145514 40.600049 271.625514 40.629291 
C 271.105514 40.658533 270.585784 40.692402 270.066386 40.730896 
L 276.55322 128.257627 
z
" clip-path="url(#p9f3d8fa42c)" style="fill: #348abd; opacity: 0.584037"/>
   </g>
   <g id="patch_120">
    <path d="M 270.127493 40.726389 
C 269.608069 40.76452 269.088994 40.807274 268.570331 40.854646 
C 268.051668 40.902018 267.533437 40.954005 267.015699 41.010603 
L 276.55322 128.257627 
z
" clip-path="url(#p9f3d8fa42c)" style="fill: #348abd; opacity: 0.653057"/>
   </g>
   <g id="patch_121">
    <path d="M 267.076611 41.003965 
C 266.558834 41.060201 266.041568 41.121045 265.524874 41.186488 
C 265.00818 41.251932 264.492079 41.321974 263.976632 41.396606 
L 276.55322 128.257627 
z
" clip-path="url(#p9f3d8fa42c)" style="fill: #348abd; opacity: 0.726874"/>
   </g>
   <g id="patch_122">
    <path d="M 264.037275 41.387847 
C 263.521776 41.462118 263.006948 41.540977 262.492853 41.624414 
C 261.978758 41.70785 261.465416 41.795861 260.952887 41.888436 
L 276.55322 128.257627 
z
" clip-path="url(#p9f3d8fa42c)" style="fill: #348abd; opacity: 0.79331"/>
   </g>
   <g id="patch_123">
    <path d="M 261.013188 41.877566 
C 260.500595 41.969783 259.988833 42.066561 259.477963 42.167888 
C 258.967093 42.269215 258.457134 42.375088 257.948149 42.485493 
L 276.55322 128.257627 
z
" clip-path="url(#p9f3d8fa42c)" style="fill: #348abd; opacity: 0.848674"/>
   </g>
   <g id="patch_124">
    <path d="M 258.008034 42.472525 
C 257.498971 42.582576 256.990899 42.697155 256.483876 42.816249 
C 255.976853 42.935344 255.470901 43.05895 254.966078 43.187051 
L 276.55322 128.257627 
z
" clip-path="url(#p9f3d8fa42c)" style="fill: #348abd; opacity: 0.886198"/>
   </g>
   <g id="patch_125">
    <path d="M 255.025474 43.172001 
C 254.520563 43.29975 254.016798 43.431991 253.514241 43.568708 
C 253.011683 43.705425 252.510353 43.846613 252.010308 43.992254 
L 276.55322 128.257627 
z
" clip-path="url(#p9f3d8fa42c)" style="fill: #348abd; opacity: 0.91351"/>
   </g>
   <g id="patch_126">
    <path d="M 252.069143 43.97514 
C 251.568997 44.120433 251.070155 44.270174 250.572675 44.424347 
C 250.075195 44.57852 249.579097 44.737117 249.08444 44.900122 
L 276.55322 128.257627 
z
" clip-path="url(#p9f3d8fa42c)" style="fill: #348abd; opacity: 0.931719"/>
   </g>
   <g id="patch_127">
    <path d="M 249.142641 44.880965 
C 248.647871 45.043624 248.154558 45.210683 247.662762 45.382124 
C 247.170966 45.553564 246.680705 45.729379 246.192038 45.909547 
L 276.55322 128.257627 
z
" clip-path="url(#p9f3d8fa42c)" style="fill: #348abd; opacity: 0.949927"/>
   </g>
   <g id="patch_128">
    <path d="M 246.249536 45.888371 
C 245.760743 46.068198 245.273562 46.252372 244.788048 46.440872 
C 244.302534 46.629371 243.818708 46.822189 243.336627 47.019302 
L 276.55322 128.257627 
z
" clip-path="url(#p9f3d8fa42c)" style="fill: #348abd; opacity: 0.959031"/>
   </g>
   <g id="patch_129">
    <path d="M 243.39335 46.996132 
C 242.911132 47.192908 242.430674 47.393972 241.952035 47.599301 
C 241.473396 47.80463 240.996593 48.014215 240.521685 48.228032 
L 276.55322 128.257627 
z
" clip-path="url(#p9f3d8fa42c)" style="fill: #348abd; opacity: 0.972687"/>
   </g>
   <g id="patch_130">
    <path d="M 240.577565 48.202897 
C 240.102508 48.416382 239.62936 48.634092 239.158178 48.856 
C 238.686996 49.077908 238.217799 49.304006 237.750642 49.534266 
L 276.55322 128.257627 
z
" clip-path="url(#p9f3d8fa42c)" style="fill: #348abd; opacity: 0.97724"/>
   </g>
   <g id="patch_131">
    <path d="M 237.805611 49.507196 
C 237.338293 49.737131 236.873032 49.97122 236.409881 50.209437 
C 235.946731 50.447654 235.48571 50.689989 235.026874 50.936413 
L 276.55322 128.257627 
z
" clip-path="url(#p9f3d8fa42c)" style="fill: #348abd; opacity: 0.981792"/>
   </g>
   <g id="patch_132">
    <path d="M 235.080864 50.907441 
C 234.621856 51.153545 234.165047 51.403729 233.710493 51.657964 
C 233.255938 51.9122 232.803656 52.170477 232.353699 52.432764 
L 276.55322 128.257627 
z
" clip-path="url(#p9f3d8fa42c)" style="fill: #348abd; opacity: 0.986344"/>
   </g>
   <g id="patch_133">
    <path d="M 232.406646 52.401925 
C 231.956506 52.663898 231.508707 52.929872 231.063302 53.199817 
C 230.617897 53.469761 230.174904 53.743665 229.734375 54.021495 
L 276.55322 128.257627 
z
" clip-path="url(#p9f3d8fa42c)" style="fill: #348abd; opacity: 0.990896"/>
   </g>
   <g id="patch_134">
    <path d="M 229.786213 53.988827 
C 229.34549 54.26635 228.907246 54.547791 228.471533 54.833115 
C 228.035821 55.118439 227.602656 55.407636 227.172092 55.700672 
L 276.55322 128.257627 
z
" clip-path="url(#p9f3d8fa42c)" style="fill: #348abd; opacity: 0.990896"/>
   </g>
   <g id="patch_135">
    <path d="M 227.222758 55.666215 
C 226.791989 55.95895 226.363834 56.255513 225.938345 56.55587 
C 225.512855 56.856227 225.090048 57.160365 224.669972 57.468248 
L 276.55322 128.257627 
z
" clip-path="url(#p9f3d8fa42c)" style="fill: #348abd; opacity: 0.995448"/>
   </g>
   <g id="patch_136">
    <path d="M 224.719405 57.432044 
C 224.299115 57.739634 223.881571 58.050959 223.466823 58.365982 
C 223.052075 58.681005 222.640139 58.999714 222.231064 59.32207 
L 276.55322 128.257627 
z
" clip-path="url(#p9f3d8fa42c)" style="fill: #348abd; opacity: 0.995448"/>
   </g>
   <g id="patch_137">
    <path d="M 222.279204 59.284163 
C 221.869904 59.606234 221.46348 59.931941 221.059978 60.261247 
C 220.656477 60.590553 220.255915 60.923444 219.85834 61.25988 
L 276.55322 128.257627 
z
" clip-path="url(#p9f3d8fa42c)" style="fill: #348abd"/>
   </g>
   <g id="patch_138">
    <path d="M 219.905127 61.220316 
C 219.507317 61.556475 219.112507 61.896168 218.720744 62.239355 
C 218.328981 62.582542 217.940281 62.929209 217.554689 63.279316 
L 276.55322 128.257627 
z
" clip-path="url(#p9f3d8fa42c)" style="fill: #348abd"/>
   </g>
   <g id="patch_139">
    <path d="M 217.600067 63.238143 
C 217.214231 63.58798 216.831517 63.941245 216.451969 64.297896 
C 216.072422 64.654546 215.696057 65.014568 215.322919 65.377918 
L 276.55322 128.257627 
z
" clip-path="url(#p9f3d8fa42c)" style="fill: #348abd"/>
   </g>
   <g id="patch_140">
    <path d="M 215.366832 65.335187 
C 214.993441 65.698276 214.623288 66.064682 214.256419 66.434362 
C 213.88955 66.804041 213.525979 67.176978 213.165749 67.553129 
L 276.55322 128.257627 
z
" clip-path="url(#p9f3d8fa42c)" style="fill: #348abd"/>
   </g>
   <g id="patch_141">
    <path d="M 213.208144 67.508891 
C 212.847651 67.884791 212.490512 68.263892 212.136768 68.64615 
C 211.783024 69.028407 211.432689 69.413806 211.085806 69.8023 
L 276.55322 128.257627 
z
" clip-path="url(#p9f3d8fa42c)" style="fill: #348abd"/>
   </g>
   <g id="patch_142">
    <path d="M 211.126632 69.756609 
C 210.779477 70.144861 210.435786 70.536195 210.095598 70.930565 
C 209.75541 71.324935 209.418739 71.722326 209.085626 72.122689 
L 276.55322 128.257627 
z
" clip-path="url(#p9f3d8fa42c)" style="fill: #348abd"/>
   </g>
   <g id="patch_143">
    <path d="M 209.124832 72.075601 
C 208.791439 72.475732 208.461614 72.878823 208.135397 73.284825 
C 207.809179 73.690827 207.486582 74.099725 207.167644 74.51147 
L 276.55322 128.257627 
z
" clip-path="url(#p9f3d8fa42c)" style="fill: #348abd"/>
   </g>
   <g id="patch_144">
    <path d="M 207.205183 74.463043 
C 206.885957 74.874565 206.570401 75.288921 206.258552 75.70606 
C 205.946702 76.1232 205.638572 76.543107 205.334198 76.965732 
L 276.55322 128.257627 
z
" clip-path="url(#p9f3d8fa42c)" style="fill: #348abd"/>
   </g>
   <g id="patch_145">
    <path d="M 205.370024 76.916025 
C 205.065355 77.338437 204.764451 77.763553 204.46735 78.191322 
C 204.170249 78.619091 203.876961 79.049496 203.587521 79.482486 
L 276.55322 128.257627 
z
" clip-path="url(#p9f3d8fa42c)" style="fill: #348abd"/>
   </g>
   <g id="patch_146">
    <path d="M 203.621591 79.431558 
C 203.331849 79.864346 203.045965 80.299704 202.763974 80.737582 
C 202.481982 81.175459 202.203894 81.615837 201.929742 82.058665 
L 276.55322 128.257627 
z
" clip-path="url(#p9f3d8fa42c)" style="fill: #348abd"/>
   </g>
   <g id="patch_147">
    <path d="M 201.962013 82.006579 
C 201.687552 82.449215 201.417037 82.894285 201.150499 83.341737 
C 200.883961 83.789189 200.621411 84.239004 200.36288 84.69113 
L 276.55322 128.257627 
z
" clip-path="url(#p9f3d8fa42c)" style="fill: #348abd"/>
   </g>
   <g id="patch_148">
    <path d="M 200.393314 84.637949 
C 200.134468 85.089894 199.87965 85.544134 199.62889 86.000616 
C 199.37813 86.457097 199.131439 86.915801 198.888845 87.376674 
L 276.55322 128.257627 
z
" clip-path="url(#p9f3d8fa42c)" style="fill: #348abd"/>
   </g>
   <g id="patch_149">
    <path d="M 198.917404 87.322464 
C 198.674488 87.783167 198.435678 88.246023 198.201002 88.710978 
C 197.966326 89.175932 197.735793 89.642967 197.509431 90.112025 
L 276.55322 128.257627 
z
" clip-path="url(#p9f3d8fa42c)" style="fill: #348abd"/>
   </g>
   <g id="patch_150">
    <path d="M 197.536081 90.056851 
C 197.309391 90.525752 197.08688 90.99666 196.868574 91.469522 
C 196.650267 91.942383 196.436174 92.417178 196.22632 92.893851 
L 276.55322 128.257627 
z
" clip-path="url(#p9f3d8fa42c)" style="fill: #348abd"/>
   </g>
   <g id="patch_151">
    <path d="M 196.251028 92.837781 
C 196.040841 93.314306 195.8349 93.792694 195.633229 94.272886 
C 195.431558 94.753078 195.234166 95.235056 195.041075 95.718762 
L 276.55322 128.257627 
z
" clip-path="url(#p9f3d8fa42c)" style="fill: #348abd"/>
   </g>
   <g id="patch_152">
    <path d="M 195.063811 95.661863 
C 194.870383 96.145435 194.681263 96.630718 194.496473 97.117656 
C 194.311683 97.604593 194.131232 98.093166 193.95514 98.583316 
L 276.55322 128.257627 
z
" clip-path="url(#p9f3d8fa42c)" style="fill: #348abd"/>
   </g>
   <g id="patch_153">
    <path d="M 193.975877 98.525659 
C 193.799442 99.015686 193.627374 99.507274 193.45969 100.000364 
C 193.292007 100.493455 193.128717 100.988028 192.969838 101.484025 
L 276.55322 128.257627 
z
" clip-path="url(#p9f3d8fa42c)" style="fill: #348abd"/>
   </g>
   <g id="patch_154">
    <path d="M 192.98855 101.425679 
C 192.829325 101.921565 192.674517 102.418858 192.524145 102.9175 
C 192.373772 103.416142 192.227841 103.916113 192.086369 104.417352 
L 276.55322 128.257627 
z
" clip-path="url(#p9f3d8fa42c)" style="fill: #348abd"/>
   </g>
   <g id="patch_155">
    <path d="M 192.103034 104.358389 
C 191.961212 104.85953 191.823853 105.361923 191.690975 105.865509 
C 191.558097 106.369095 191.429703 106.873854 191.305811 107.379726 
L 276.55322 128.257627 
z
" clip-path="url(#p9f3d8fa42c)" style="fill: #348abd"/>
   </g>
   <g id="patch_156">
    <path d="M 191.320407 107.320217 
C 191.196161 107.826002 191.07642 108.332883 190.961197 108.8408 
C 190.845975 109.348716 190.735276 109.857648 190.629113 110.367536 
L 276.55322 128.257627 
z
" clip-path="url(#p9f3d8fa42c)" style="fill: #348abd"/>
   </g>
   <g id="patch_157">
    <path d="M 190.641623 110.307554 
C 190.535105 110.817367 190.433126 111.328118 190.3357 111.839746 
C 190.238274 112.351375 190.145404 112.86386 190.0571 113.377142 
L 276.55322 128.257627 
z
" clip-path="url(#p9f3d8fa42c)" style="fill: #348abd"/>
   </g>
   <g id="patch_158">
    <path d="M 190.06751 113.31676 
C 189.978848 113.82998 189.894757 114.343979 189.815246 114.858696 
C 189.735734 115.373413 189.660806 115.888827 189.59047 116.404878 
L 276.55322 128.257627 
z
" clip-path="url(#p9f3d8fa42c)" style="fill: #348abd"/>
   </g>
   <g id="patch_159">
    <path d="M 189.598766 116.344169 
C 189.52807 116.860171 189.461968 117.376791 189.400468 117.89397 
C 189.338969 118.411148 189.282074 118.928863 189.22979 119.447054 
L 276.55322 128.257627 
z
" clip-path="url(#p9f3d8fa42c)" style="fill: #348abd"/>
   </g>
   <g id="patch_160">
    <path d="M 189.235963 119.386093 
C 189.183318 119.904248 189.135286 120.422861 189.091873 120.94187 
C 189.04846 121.46088 189.009668 121.980265 188.975501 122.499965 
L 276.55322 128.257627 
z
" clip-path="url(#p9f3d8fa42c)" style="fill: #348abd"/>
   </g>
   <g id="patch_161">
    <path d="M 188.979542 122.438826 
C 188.945012 122.958502 188.915109 123.478475 188.889836 123.998684 
C 188.864562 124.518892 188.84392 125.039315 188.827911 125.559891 
L 276.55322 128.257627 
z
" clip-path="url(#p9f3d8fa42c)" style="fill: #348abd"/>
   </g>
   <g id="patch_162">
    <path d="M 188.829816 125.498648 
C 188.813444 126.019213 188.801706 126.539913 188.794603 127.060686 
C 188.7875 127.58146 188.785033 128.102286 188.787202 128.623104 
L 276.55322 128.257627 
z
" clip-path="url(#p9f3d8fa42c)" style="fill: #348abd"/>
   </g>
   <g id="patch_163">
    <path d="M 188.786968 128.561831 
C 188.788773 129.08265 188.795214 129.603443 188.80629 130.124147 
C 188.817367 130.644851 188.833078 131.165446 188.853421 131.685871 
L 276.55322 128.257627 
z
" clip-path="url(#p9f3d8fa42c)" style="fill: #348abd"/>
   </g>
   <g id="patch_164">
    <path d="M 188.851049 131.624644 
C 188.87103 132.145083 188.895642 132.665333 188.924884 133.185333 
C 188.954126 133.705334 188.987996 134.225064 189.02649 134.744461 
L 276.55322 128.257627 
z
" clip-path="url(#p9f3d8fa42c)" style="fill: #348abd"/>
   </g>
   <g id="patch_165">
    <path d="M 189.021982 134.683355 
C 189.060114 135.202779 189.102868 135.721853 189.150239 136.240517 
C 189.197611 136.75918 189.249599 137.277411 189.306196 137.795149 
L 276.55322 128.257627 
z
" clip-path="url(#p9f3d8fa42c)" style="fill: #348abd"/>
   </g>
   <g id="patch_166">
    <path d="M 189.299559 137.734236 
C 189.355794 138.252013 189.416638 138.76928 189.482082 139.285974 
C 189.547526 139.802668 189.617568 140.318769 189.692199 140.834216 
L 276.55322 128.257627 
z
" clip-path="url(#p9f3d8fa42c)" style="fill: #348abd"/>
   </g>
   <g id="patch_167">
    <path d="M 189.68344 140.773572 
C 189.757712 141.289071 189.83657 141.803899 189.920007 142.317994 
C 190.003443 142.83209 190.091454 143.345432 190.184029 143.85796 
L 276.55322 128.257627 
z
" clip-path="url(#p9f3d8fa42c)" style="fill: #348abd"/>
   </g>
   <g id="patch_168">
    <path d="M 190.173159 143.79766 
C 190.265376 144.310253 190.362154 144.822015 190.463481 145.332885 
C 190.564808 145.843755 190.670681 146.353713 190.781087 146.862698 
L 276.55322 128.257627 
z
" clip-path="url(#p9f3d8fa42c)" style="fill: #348abd; opacity: 0.995448"/>
   </g>
   <g id="patch_169">
    <path d="M 190.768119 146.802814 
C 190.878169 147.311876 190.992748 147.819949 191.111843 148.326971 
C 191.230937 148.833994 191.354543 149.339947 191.482644 149.844769 
L 276.55322 128.257627 
z
" clip-path="url(#p9f3d8fa42c)" style="fill: #348abd; opacity: 0.995448"/>
   </g>
   <g id="patch_170">
    <path d="M 191.467594 149.785373 
C 191.595343 150.290285 191.727584 150.794049 191.864301 151.296607 
C 192.001018 151.799164 192.142206 152.300495 192.287847 152.800539 
L 276.55322 128.257627 
z
" clip-path="url(#p9f3d8fa42c)" style="fill: #348abd; opacity: 0.990896"/>
   </g>
   <g id="patch_171">
    <path d="M 192.270734 152.741705 
C 192.416026 153.24185 192.565768 153.740693 192.71994 154.238173 
C 192.874113 154.735653 193.032711 155.231751 193.195715 155.726407 
L 276.55322 128.257627 
z
" clip-path="url(#p9f3d8fa42c)" style="fill: #348abd; opacity: 0.990896"/>
   </g>
   <g id="patch_172">
    <path d="M 193.176558 155.668206 
C 193.339217 156.162976 193.506277 156.656289 193.677717 157.148085 
C 193.849158 157.639882 194.024972 158.130142 194.205141 158.618809 
L 276.55322 128.257627 
z
" clip-path="url(#p9f3d8fa42c)" style="fill: #348abd; opacity: 0.986344"/>
   </g>
   <g id="patch_173">
    <path d="M 194.183964 158.561312 
C 194.363791 159.050104 194.547966 159.537286 194.736465 160.022799 
C 194.924965 160.508313 195.117782 160.992139 195.314895 161.47422 
L 276.55322 128.257627 
z
" clip-path="url(#p9f3d8fa42c)" style="fill: #348abd; opacity: 0.981792"/>
   </g>
   <g id="patch_174">
    <path d="M 195.291725 161.417497 
C 195.488501 161.899716 195.689565 162.380173 195.894894 162.858813 
C 196.100223 163.337452 196.309808 163.814254 196.523625 164.289162 
L 276.55322 128.257627 
z
" clip-path="url(#p9f3d8fa42c)" style="fill: #348abd; opacity: 0.97724"/>
   </g>
   <g id="patch_175">
    <path d="M 196.49849 164.233282 
C 196.711975 164.70834 196.929685 165.181488 197.151593 165.652669 
C 197.373501 166.123851 197.599599 166.593049 197.82986 167.060205 
L 276.55322 128.257627 
z
" clip-path="url(#p9f3d8fa42c)" style="fill: #348abd; opacity: 0.972687"/>
   </g>
   <g id="patch_176">
    <path d="M 197.802789 167.005237 
C 198.032724 167.472554 198.266814 167.937816 198.505031 168.400966 
C 198.743247 168.864117 198.985582 169.325137 199.232006 169.783974 
L 276.55322 128.257627 
z
" clip-path="url(#p9f3d8fa42c)" style="fill: #348abd; opacity: 0.959031"/>
   </g>
   <g id="patch_177">
    <path d="M 199.203034 169.729983 
C 199.449138 170.188991 199.699322 170.6458 199.953558 171.100355 
C 200.207793 171.554909 200.46607 172.007192 200.728357 172.457148 
L 276.55322 128.257627 
z
" clip-path="url(#p9f3d8fa42c)" style="fill: #348abd; opacity: 0.949927"/>
   </g>
   <g id="patch_178">
    <path d="M 200.697518 172.404202 
C 200.959491 172.854342 201.225465 173.302141 201.49541 173.747546 
C 201.765354 174.192951 202.039258 174.635944 202.317088 175.076473 
L 276.55322 128.257627 
z
" clip-path="url(#p9f3d8fa42c)" style="fill: #348abd; opacity: 0.931719"/>
   </g>
   <g id="patch_179">
    <path d="M 202.284421 175.024635 
C 202.561944 175.465358 202.843384 175.903601 203.128708 176.339314 
C 203.414033 176.775027 203.70323 177.208191 203.996265 177.638756 
L 276.55322 128.257627 
z
" clip-path="url(#p9f3d8fa42c)" style="fill: #348abd; opacity: 0.91351"/>
   </g>
   <g id="patch_180">
    <path d="M 203.961808 177.588089 
C 204.254543 178.018858 204.551106 178.447013 204.851463 178.872503 
C 205.15182 179.297992 205.455958 179.7208 205.763841 180.140875 
L 276.55322 128.257627 
z
" clip-path="url(#p9f3d8fa42c)" style="fill: #348abd; opacity: 0.886198"/>
   </g>
   <g id="patch_181">
    <path d="M 205.727637 180.091442 
C 206.035227 180.511733 206.346552 180.929277 206.661576 181.344025 
C 206.976599 181.758773 207.295307 182.170709 207.617664 182.579783 
L 276.55322 128.257627 
z
" clip-path="url(#p9f3d8fa42c)" style="fill: #348abd; opacity: 0.848674"/>
   </g>
   <g id="patch_182">
    <path d="M 207.579756 182.531644 
C 207.901827 182.940943 208.227535 183.347368 208.55684 183.750869 
C 208.886146 184.15437 209.219037 184.554932 209.555473 184.952508 
L 276.55322 128.257627 
z
" clip-path="url(#p9f3d8fa42c)" style="fill: #348abd; opacity: 0.79331"/>
   </g>
   <g id="patch_183">
    <path d="M 209.515909 184.905721 
C 209.852068 185.303531 210.191761 185.698341 210.534948 186.090104 
C 210.878135 186.481866 211.224803 186.870567 211.574909 187.256158 
L 276.55322 128.257627 
z
" clip-path="url(#p9f3d8fa42c)" style="fill: #348abd; opacity: 0.726874"/>
   </g>
   <g id="patch_184">
    <path d="M 211.533736 187.210781 
C 211.883574 187.596617 212.236839 187.979331 212.593489 188.358878 
C 212.950139 188.738425 213.310161 189.11479 213.673511 189.487928 
L 276.55322 128.257627 
z
" clip-path="url(#p9f3d8fa42c)" style="fill: #348abd; opacity: 0.653057"/>
   </g>
   <g id="patch_185">
    <path d="M 213.63078 189.444015 
C 213.99387 189.817407 214.360276 190.187559 214.729955 190.554428 
C 215.099634 190.921297 215.472571 191.284869 215.848723 191.645099 
L 276.55322 128.257627 
z
" clip-path="url(#p9f3d8fa42c)" style="fill: #348abd; opacity: 0.584037"/>
   </g>
   <g id="patch_186">
    <path d="M 215.804485 191.602704 
C 216.180384 191.963196 216.559485 192.320336 216.941743 192.67408 
C 217.324 193.027824 217.709399 193.378158 218.097893 193.725041 
L 276.55322 128.257627 
z
" clip-path="url(#p9f3d8fa42c)" style="fill: #348abd; opacity: 0.500038"/>
   </g>
   <g id="patch_187">
    <path d="M 218.052202 193.684216 
C 218.440454 194.03137 218.831788 194.375062 219.226158 194.71525 
C 219.620528 195.055437 220.017919 195.392108 220.418282 195.725222 
L 276.55322 128.257627 
z
" clip-path="url(#p9f3d8fa42c)" style="fill: #348abd; opacity: 0.413918"/>
   </g>
   <g id="patch_188">
    <path d="M 220.371195 195.686016 
C 220.771325 196.019409 221.174416 196.349234 221.580418 196.675451 
C 221.98642 197.001668 222.395318 197.324265 222.807063 197.643203 
L 276.55322 128.257627 
z
" clip-path="url(#p9f3d8fa42c)" style="fill: #348abd; opacity: 0.313403"/>
   </g>
   <g id="patch_189">
    <path d="M 222.758636 197.605665 
C 223.170158 197.92489 223.584514 198.240446 224.001654 198.552296 
C 224.418793 198.864145 224.838701 199.172275 225.261326 199.476649 
L 276.55322 128.257627 
z
" clip-path="url(#p9f3d8fa42c)" style="fill: #348abd; opacity: 0.229112"/>
   </g>
   <g id="patch_190">
    <path d="M 225.211618 199.440824 
C 225.63403 199.745493 226.059146 200.046396 226.486915 200.343497 
C 226.914684 200.640599 227.345089 200.933887 227.778079 201.223326 
L 276.55322 128.257627 
z
" clip-path="url(#p9f3d8fa42c)" style="fill: #348abd; opacity: 0.16366"/>
   </g>
   <g id="patch_191">
    <path d="M 227.727151 201.189257 
C 228.159939 201.478998 228.595298 201.764882 229.033175 202.046874 
C 229.471052 202.328865 229.91143 202.606953 230.354258 202.881105 
L 276.55322 128.257627 
z
" clip-path="url(#p9f3d8fa42c)" style="fill: #348abd; opacity: 0.118601"/>
   </g>
   <g id="patch_192">
    <path d="M 230.302172 202.848834 
C 230.744808 203.123295 231.189879 203.393811 231.63733 203.660349 
C 232.084782 203.926887 232.534597 204.189437 232.986723 204.447967 
L 276.55322 128.257627 
z
" clip-path="url(#p9f3d8fa42c)" style="fill: #348abd; opacity: 0.081815"/>
   </g>
   <g id="patch_193">
    <path d="M 232.933543 204.417533 
C 233.385488 204.67638 233.839728 204.931198 234.296209 205.181957 
C 234.75269 205.432717 235.211394 205.679409 235.672267 205.922003 
L 276.55322 128.257627 
z
" clip-path="url(#p9f3d8fa42c)" style="fill: #348abd; opacity: 0.053518"/>
   </g>
   <g id="patch_194">
    <path d="M 235.618057 205.893444 
C 236.07876 206.136359 236.541617 206.37517 237.006571 206.609846 
C 237.471526 206.844522 237.93856 207.075054 238.407618 207.301417 
L 276.55322 128.257627 
z
" clip-path="url(#p9f3d8fa42c)" style="fill: #348abd; opacity: 0.038754"/>
   </g>
   <g id="patch_195">
    <path d="M 238.352444 207.274767 
C 238.821345 207.501456 239.292254 207.723967 239.765115 207.942274 
C 240.237976 208.16058 240.712771 208.374673 241.189444 208.584528 
L 276.55322 128.257627 
z
" clip-path="url(#p9f3d8fa42c)" style="fill: #348abd; opacity: 0.027682"/>
   </g>
   <g id="patch_196">
    <path d="M 241.133374 208.559819 
C 241.6099 208.770006 242.088287 208.975948 242.568479 209.177618 
C 243.048671 209.379289 243.530649 209.576682 244.014355 209.769773 
L 276.55322 128.257627 
z
" clip-path="url(#p9f3d8fa42c)" style="fill: #348abd; opacity: 0.0203"/>
   </g>
   <g id="patch_197">
    <path d="M 243.957457 209.747036 
C 244.441028 209.940465 244.926311 210.129585 245.413249 210.314374 
C 245.900187 210.499164 246.388759 210.679616 246.87891 210.855708 
L 276.55322 128.257627 
z
" clip-path="url(#p9f3d8fa42c)" style="fill: #348abd; opacity: 0.014764"/>
   </g>
   <g id="patch_198">
    <path d="M 246.821253 210.834971 
C 247.31128 211.011405 247.802867 211.183474 248.295958 211.351157 
C 248.789048 211.51884 249.283621 211.682131 249.779618 211.84101 
L 276.55322 128.257627 
z
" clip-path="url(#p9f3d8fa42c)" style="fill: #348abd; opacity: 0.009227"/>
   </g>
   <g id="patch_199">
    <path d="M 249.721272 211.822298 
C 250.217158 211.981523 250.714452 212.136331 251.213094 212.286703 
C 251.711735 212.437075 252.211706 212.583006 252.712946 212.724478 
L 276.55322 128.257627 
z
" clip-path="url(#p9f3d8fa42c)" style="fill: #348abd; opacity: 0.007382"/>
   </g>
   <g id="patch_200">
    <path d="M 252.653982 212.707814 
C 253.155123 212.849636 253.657516 212.986994 254.161102 213.119872 
C 254.664689 213.252751 255.169447 213.381144 255.675319 213.505037 
L 276.55322 128.257627 
z
" clip-path="url(#p9f3d8fa42c)" style="fill: #348abd; opacity: 0.003691"/>
   </g>
   <g id="patch_201">
    <path d="M 255.61581 213.49044 
C 256.121595 213.614686 256.628476 213.734428 257.136393 213.84965 
C 257.644309 213.964873 258.153242 214.075572 258.663129 214.181735 
L 276.55322 128.257627 
z
" clip-path="url(#p9f3d8fa42c)" style="fill: #348abd; opacity: 0.003691"/>
   </g>
   <g id="patch_202">
    <path d="M 134.310508 128.257627 
C 134.310508 124.245157 133.696691 120.256197 132.490385 116.429353 
C 131.284078 112.602508 129.499418 108.982623 127.198418 105.69548 
" clip-path="url(#p9f3d8fa42c)" style="fill: none; stroke: #000000; stroke-width: 1.5; stroke-linejoin: miter"/>
   </g>
   <g id="patch_203">
    <path d="M 169.347484 76.191134 
C 158.663899 60.92887 143.537328 49.318496 126.031772 42.944234 
C 108.526216 36.569971 89.475818 35.735555 71.47998 40.554839 
" clip-path="url(#p9f3d8fa42c)" style="fill: none; stroke: #000000; stroke-width: 1.5; stroke-linejoin: miter; stroke-linecap: square"/>
   </g>
   <g id="patch_204">
    <path d="M 234.403526 111.397749 
C 233.333505 114.072801 232.52057 116.843653 231.975729 119.672787 
C 231.430888 122.50192 231.15661 125.376508 231.15661 128.257627 
" clip-path="url(#p9f3d8fa42c)" style="fill: none; stroke: #000000; stroke-width: 1.5; stroke-linejoin: miter"/>
   </g>
   <g id="patch_205">
    <path d="M 94.96678 216.024407 
C 118.242802 216.024407 140.568632 206.776745 157.027265 190.318112 
C 173.485898 173.859479 182.733559 151.533649 182.733559 128.257627 
C 182.733559 104.981605 173.485898 82.655775 157.027265 66.197142 
C 140.568632 49.738509 118.242802 40.490847 94.96678 40.490847 
C 71.690758 40.490847 49.364928 49.738509 32.906295 66.197142 
C 16.447662 82.655775 7.2 104.981605 7.2 128.257627 
C 7.2 151.533649 16.447662 173.859479 32.906295 190.318112 
C 49.364928 206.776745 71.690758 216.024407 94.96678 216.024407 
L 94.96678 216.024407 
z
" clip-path="url(#p9f3d8fa42c)" style="fill: none; stroke-dasharray: 0.5,4; stroke-dashoffset: 2.5; stroke: #000000; stroke-width: 0.5; stroke-linejoin: miter"/>
   </g>
   <g id="patch_206">
    <path d="M 276.55322 216.024407 
C 299.829242 216.024407 322.155072 206.776745 338.613705 190.318112 
C 355.072338 173.859479 364.32 151.533649 364.32 128.257627 
C 364.32 104.981605 355.072338 82.655775 338.613705 66.197142 
C 322.155072 49.738509 299.829242 40.490847 276.55322 40.490847 
C 253.277198 40.490847 230.951368 49.738509 214.492735 66.197142 
C 198.034102 82.655775 188.786441 104.981605 188.786441 128.257627 
C 188.786441 151.533649 198.034102 173.859479 214.492735 190.318112 
C 230.951368 206.776745 253.277198 216.024407 276.55322 216.024407 
L 276.55322 216.024407 
z
" clip-path="url(#p9f3d8fa42c)" style="fill: none; stroke-dasharray: 0.5,4; stroke-dashoffset: 2.5; stroke: #000000; stroke-width: 0.5; stroke-linejoin: miter"/>
   </g>
   <g id="patch_207">
    <path d="M 144.553916 93.546632 
L 139.421647 100.464037 
L 138.380317 98.976423 
L 95.487445 129.001434 
L 94.446115 127.51382 
L 137.338988 97.488809 
L 136.297658 96.001195 
z
" clip-path="url(#p9f3d8fa42c)" style="stroke: #000000; stroke-width: 0.5; stroke-linejoin: miter; stroke-linecap: square"/>
   </g>
   <g id="patch_208">
    <path d="M 220.353628 105.77779 
L 228.952165 106.283586 
L 228.27777 107.969574 
L 276.890418 127.414633 
L 276.216023 129.100621 
L 227.603375 109.655562 
L 226.92898 111.34155 
z
" clip-path="url(#p9f3d8fa42c)" style="stroke: #000000; stroke-width: 0.5; stroke-linejoin: miter; stroke-linecap: square"/>
   </g>
   <g id="patch_209">
    <path d="M 276.55322 128.257627 
L 268.381831 130.981424 
L 268.381831 129.165559 
L 94.96678 129.165559 
L 94.96678 127.349695 
L 268.381831 127.349695 
L 268.381831 125.533831 
z
" clip-path="url(#p9f3d8fa42c)" style="stroke: #000000; stroke-width: 0.5; stroke-linejoin: miter; stroke-linecap: square"/>
   </g>
   <g id="text_1">
    <!-- $\theta_i$ -->
    <g transform="translate(137.830995 118.926344) scale(0.16 -0.16)">
     <defs>
      <path id="CMMI12-12" d="M 2835 3200 
C 2835 3849 2630 4480 2106 4480 
C 1210 4480 256 2615 256 1215 
C 256 922 320 -64 992 -64 
C 1862 -64 2835 1755 2835 3200 
z
M 896 2304 
C 992 2679 1126 3213 1382 3665 
C 1594 4046 1818 4351 2099 4351 
C 2310 4351 2451 4173 2451 3563 
C 2451 3334 2432 3016 2246 2304 
L 896 2304 
z
M 2202 2112 
C 2042 1488 1907 1088 1677 687 
C 1491 362 1267 64 998 64 
C 800 64 640 216 640 846 
C 640 1259 742 1692 845 2112 
L 2202 2112 
z
" transform="scale(0.015625)"/>
      <path id="CMMI12-69" d="M 1811 913 
C 1811 945 1786 970 1747 970 
C 1690 970 1683 951 1651 842 
C 1485 261 1222 64 1011 64 
C 934 64 845 83 845 274 
C 845 447 922 638 992 830 
L 1440 2017 
C 1459 2068 1504 2183 1504 2305 
C 1504 2573 1312 2816 998 2816 
C 410 2816 173 1890 173 1838 
C 173 1813 198 1781 243 1781 
C 301 1781 307 1807 333 1896 
C 486 2432 730 2687 979 2687 
C 1037 2687 1146 2681 1146 2477 
C 1146 2311 1062 2100 1011 1960 
L 563 772 
C 525 670 486 568 486 453 
C 486 166 685 -64 992 -64 
C 1581 -64 1811 868 1811 913 
z
M 1760 4012 
C 1760 4108 1683 4224 1542 4224 
C 1395 4224 1229 4083 1229 3916 
C 1229 3756 1363 3705 1440 3705 
C 1613 3705 1760 3871 1760 4012 
z
" transform="scale(0.015625)"/>
     </defs>
     <use xlink:href="#CMMI12-12" transform="scale(0.996264)"/>
     <use xlink:href="#CMMI12-69" transform="translate(45.45979 -14.943915) scale(0.697382)"/>
    </g>
   </g>
   <g id="text_2">
    <!-- $\alpha$ -->
    <g transform="translate(144.478973 40.238887) scale(0.16 -0.16)">
     <defs>
      <path id="CMMI12-b" d="M 2963 1615 
C 2963 2234 2611 2816 1933 2816 
C 1094 2816 256 1902 256 996 
C 256 440 602 -64 1254 -64 
C 1651 -64 2125 89 2579 472 
C 2669 115 2867 -64 3142 -64 
C 3488 -64 3661 293 3661 376 
C 3661 434 3616 434 3597 434 
C 3546 434 3539 415 3520 364 
C 3462 204 3315 64 3162 64 
C 2963 64 2963 472 2963 862 
C 3616 1641 3770 2445 3770 2451 
C 3770 2509 3718 2509 3699 2509 
C 3642 2509 3635 2490 3610 2375 
C 3526 2094 3360 1596 2963 1072 
L 2963 1615 
z
M 2560 625 
C 1997 121 1491 64 1267 64 
C 813 64 685 466 685 766 
C 685 1040 826 1692 1024 2043 
C 1286 2490 1645 2687 1933 2687 
C 2554 2687 2554 1877 2554 1340 
C 2554 1181 2547 1015 2547 855 
C 2547 728 2554 696 2560 625 
z
" transform="scale(0.015625)"/>
     </defs>
     <use xlink:href="#CMMI12-b" transform="scale(0.996264)"/>
    </g>
   </g>
   <g id="text_3">
    <!-- $\theta_j$ -->
    <g transform="translate(205.853116 118.195754) scale(0.16 -0.16)">
     <defs>
      <path id="CMMI12-6a" d="M 2240 2027 
C 2266 2129 2266 2218 2266 2243 
C 2266 2611 1990 2816 1702 2816 
C 1056 2816 710 1888 710 1843 
C 710 1811 736 1786 774 1786 
C 826 1786 832 1811 864 1875 
C 1120 2491 1440 2687 1683 2687 
C 1818 2687 1888 2617 1888 2395 
C 1888 2243 1869 2180 1843 2065 
L 1235 -327 
C 1114 -797 813 -1152 461 -1152 
C 435 -1152 301 -1152 179 -1089 
C 333 -1057 454 -937 454 -784 
C 454 -683 378 -581 237 -581 
C 70 -581 -83 -721 -83 -911 
C -83 -1172 198 -1280 461 -1280 
C 902 -1280 1485 -956 1645 -321 
L 2240 2027 
z
M 2502 4012 
C 2502 4172 2368 4224 2291 4224 
C 2118 4224 1971 4057 1971 3916 
C 1971 3820 2048 3705 2189 3705 
C 2336 3705 2502 3846 2502 4012 
z
" transform="scale(0.015625)"/>
     </defs>
     <use xlink:href="#CMMI12-12" transform="scale(0.996264)"/>
     <use xlink:href="#CMMI12-6a" transform="translate(45.45979 -14.943915) scale(0.697382)"/>
    </g>
   </g>
   <g id="text_4">
    <!-- $\vec{r}_{ij}$ -->
    <g transform="translate(216.024407 152.469153) scale(0.16 -0.16)">
     <defs>
      <path id="CMMI12-7e" d="M 3424 3840 
C 3347 3769 3110 3545 3110 3455 
C 3110 3391 3168 3334 3232 3334 
C 3290 3334 3315 3372 3360 3436 
C 3514 3628 3686 3750 3834 3833 
C 3898 3872 3942 3891 3942 3961 
C 3942 4019 3891 4051 3853 4083 
C 3674 4204 3629 4377 3610 4454 
C 3590 4505 3571 4582 3482 4582 
C 3443 4582 3366 4556 3366 4460 
C 3366 4403 3405 4249 3526 4076 
L 1376 4076 
C 1267 4076 1158 4076 1158 3955 
C 1158 3840 1274 3840 1376 3840 
L 3424 3840 
z
" transform="scale(0.015625)"/>
      <path id="CMMI12-72" d="M 2490 2633 
C 2291 2598 2189 2457 2189 2316 
C 2189 2163 2310 2111 2400 2111 
C 2579 2111 2726 2265 2726 2457 
C 2726 2651 2528 2816 2208 2816 
C 1952 2816 1658 2700 1389 2335 
C 1344 2660 1088 2816 832 2816 
C 582 2816 454 2642 378 2508 
C 269 2278 173 1892 173 1860 
C 173 1834 198 1801 243 1801 
C 294 1801 301 1808 339 1957 
C 435 2342 557 2687 813 2687 
C 966 2687 1011 2604 1011 2419 
C 1011 2278 947 2028 902 1827 
L 723 1130 
C 698 1007 627 716 595 600 
C 550 432 480 128 480 96 
C 480 6 550 -64 646 -64 
C 717 -64 838 -20 877 109 
C 896 160 1133 1136 1171 1285 
C 1203 1427 1242 1562 1274 1705 
C 1299 1795 1325 1898 1344 1982 
C 1363 2040 1536 2355 1696 2495 
C 1773 2566 1939 2687 2202 2687 
C 2304 2687 2406 2674 2490 2633 
z
" transform="scale(0.015625)"/>
     </defs>
     <use xlink:href="#CMMI12-7e" transform="scale(0.996264)"/>
     <use xlink:href="#CMMI12-72" transform="translate(3.294926 0) scale(0.996264)"/>
     <use xlink:href="#CMMI12-69" transform="translate(47.25582 -14.943915) scale(0.697382)"/>
     <use xlink:href="#CMMI12-6a" transform="translate(70.550727 -14.943915) scale(0.697382)"/>
    </g>
   </g>
   <g id="text_5">
    <!-- $i$ -->
    <g transform="translate(83.225169 150.401327) scale(0.16 -0.16)">
     <use xlink:href="#CMMI12-69" transform="scale(0.996264)"/>
    </g>
   </g>
   <g id="text_6">
    <!-- $j$ -->
    <g transform="translate(282.403927 150.401327) scale(0.16 -0.16)">
     <use xlink:href="#CMMI12-6a" transform="scale(0.996264)"/>
    </g>
   </g>
  </g>
 </g>
 <defs>
  <clipPath id="p9f3d8fa42c">
   <rect x="7.2" y="7.2" width="357.12" height="242.115254"/>
  </clipPath>
 </defs>
</svg>
