<?xml version="1.0" encoding="utf-8" standalone="no"?>
<!DOCTYPE svg PUBLIC "-//W3C//DTD SVG 1.1//EN"
  "http://www.w3.org/Graphics/SVG/1.1/DTD/svg11.dtd">
<svg xmlns:xlink="http://www.w3.org/1999/xlink" width="395.492985pt" height="336.891151pt" viewBox="0 0 395.492985 336.891151" xmlns="http://www.w3.org/2000/svg" version="1.1">
 <metadata>
  <rdf:RDF xmlns:dc="http://purl.org/dc/elements/1.1/" xmlns:cc="http://creativecommons.org/ns#" xmlns:rdf="http://www.w3.org/1999/02/22-rdf-syntax-ns#">
   <cc:Work>
    <dc:type rdf:resource="http://purl.org/dc/dcmitype/StillImage"/>
    <dc:date>2024-10-25T16:03:43.790272</dc:date>
    <dc:format>image/svg+xml</dc:format>
    <dc:creator>
     <cc:Agent>
      <dc:title>Matplotlib v3.9.2, https://matplotlib.org/</dc:title>
     </cc:Agent>
    </dc:creator>
   </cc:Work>
  </rdf:RDF>
 </metadata>
 <defs>
  <style type="text/css">*{stroke-linejoin: round; stroke-linecap: butt}</style>
 </defs>
 <g id="figure_1">
  <g id="patch_1">
   <path d="M 0 336.891151 
L 395.492985 336.891151 
L 395.492985 0 
L 0 0 
z
" style="fill: #ffffff"/>
  </g>
  <g id="axes_1">
   <g id="patch_2">
    <path d="M 31.172985 292.223573 
L 388.292985 292.223573 
L 388.292985 26.111573 
L 31.172985 26.111573 
z
" style="fill: #e5e5e5"/>
   </g>
   <g id="matplotlib.axis_1">
    <g id="xtick_1">
     <g id="line2d_1">
      <path d="M 50.373195 292.223573 
L 50.373195 26.111573 
" clip-path="url(#p2ef0d24cb7)" style="fill: none; stroke: #ffffff; stroke-width: 0.8; stroke-linecap: square"/>
     </g>
     <g id="line2d_2"/>
     <g id="text_1">
      <!-- $-\pi$ -->
      <g style="fill: #555555" transform="translate(38.897255 307.678741) scale(0.1728 -0.1728)">
       <defs>
        <path id="CMSY10-0" d="M 4218 1472 
C 4326 1472 4442 1472 4442 1600 
C 4442 1728 4326 1728 4218 1728 
L 755 1728 
C 646 1728 531 1728 531 1600 
C 531 1472 646 1472 755 1472 
L 4218 1472 
z
" transform="scale(0.015625)"/>
        <path id="CMMI12-19" d="M 1658 2406 
L 2381 2406 
C 2208 1691 2099 1225 2099 715 
C 2099 625 2099 -64 2362 -64 
C 2496 -64 2611 57 2611 166 
C 2611 198 2611 210 2566 306 
C 2394 746 2394 1295 2394 1340 
C 2394 1378 2394 1832 2528 2406 
L 3245 2406 
C 3328 2406 3539 2406 3539 2611 
C 3539 2752 3418 2752 3302 2752 
L 1197 2752 
C 1050 2752 832 2752 538 2438 
C 371 2253 166 1915 166 1876 
C 166 1838 198 1825 237 1825 
C 282 1825 288 1844 320 1883 
C 653 2406 986 2406 1146 2406 
L 1510 2406 
C 1370 1927 1210 1372 685 255 
C 634 153 634 140 634 102 
C 634 -32 749 -64 806 -64 
C 992 -64 1043 102 1120 370 
C 1222 695 1222 708 1286 964 
L 1658 2406 
z
" transform="scale(0.015625)"/>
       </defs>
       <use xlink:href="#CMSY10-0" transform="scale(0.996264)"/>
       <use xlink:href="#CMMI12-19" transform="translate(77.487468 0) scale(0.996264)"/>
      </g>
     </g>
    </g>
    <g id="xtick_2">
     <g id="line2d_3">
      <path d="M 103.577803 292.223573 
L 103.577803 26.111573 
" clip-path="url(#p2ef0d24cb7)" style="fill: none; stroke: #ffffff; stroke-width: 0.8; stroke-linecap: square"/>
     </g>
     <g id="line2d_4"/>
     <g id="text_2">
      <!-- $-2\pi/3$ -->
      <g style="fill: #555555" transform="translate(79.683573 308.635146) scale(0.1728 -0.1728)">
       <defs>
        <path id="CMR17-32" d="M 2669 990 
L 2554 990 
C 2490 537 2438 460 2413 422 
C 2381 371 1920 371 1830 371 
L 602 371 
C 832 620 1280 1073 1824 1596 
C 2214 1966 2669 2400 2669 3033 
C 2669 3788 2067 4224 1395 4224 
C 691 4224 262 3603 262 3027 
C 262 2777 448 2745 525 2745 
C 589 2745 781 2783 781 3007 
C 781 3206 614 3264 525 3264 
C 486 3264 448 3257 422 3244 
C 544 3788 915 4057 1306 4057 
C 1862 4057 2227 3616 2227 3033 
C 2227 2477 1901 1998 1536 1583 
L 262 147 
L 262 0 
L 2515 0 
L 2669 990 
z
" transform="scale(0.015625)"/>
        <path id="CMMI12-3d" d="M 2746 4563 
C 2746 4569 2784 4665 2784 4678 
C 2784 4755 2720 4800 2669 4800 
C 2637 4800 2579 4800 2528 4659 
L 384 -1364 
C 384 -1370 346 -1466 346 -1479 
C 346 -1556 410 -1600 461 -1600 
C 499 -1600 557 -1594 602 -1460 
L 2746 4563 
z
" transform="scale(0.015625)"/>
        <path id="CMR17-33" d="M 1414 2176 
C 1984 2176 2234 1673 2234 1094 
C 2234 322 1824 25 1453 25 
C 1114 25 563 193 390 691 
C 422 678 454 678 486 678 
C 640 678 755 780 755 947 
C 755 1132 614 1216 486 1216 
C 378 1216 211 1164 211 927 
C 211 335 787 -128 1466 -128 
C 2176 -128 2720 432 2720 1087 
C 2720 1718 2208 2176 1600 2246 
C 2086 2347 2554 2776 2554 3353 
C 2554 3856 2048 4224 1472 4224 
C 890 4224 378 3862 378 3347 
C 378 3123 544 3084 627 3084 
C 762 3084 877 3167 877 3334 
C 877 3500 762 3584 627 3584 
C 602 3584 570 3584 544 3571 
C 730 3999 1235 4076 1459 4076 
C 1683 4076 2106 3966 2106 3347 
C 2106 3167 2080 2851 1862 2574 
C 1670 2329 1453 2316 1242 2297 
C 1210 2297 1062 2284 1037 2284 
C 992 2278 966 2272 966 2227 
C 966 2182 973 2176 1101 2176 
L 1414 2176 
z
" transform="scale(0.015625)"/>
       </defs>
       <use xlink:href="#CMSY10-0" transform="scale(0.996264)"/>
       <use xlink:href="#CMR17-32" transform="translate(77.487468 0) scale(0.996264)"/>
       <use xlink:href="#CMMI12-19" transform="translate(123.177945 0) scale(0.996264)"/>
       <use xlink:href="#CMMI12-3d" transform="translate(182.088546 0) scale(0.996264)"/>
       <use xlink:href="#CMR17-33" transform="translate(230.863464 0) scale(0.996264)"/>
      </g>
     </g>
    </g>
    <g id="xtick_3">
     <g id="line2d_5">
      <path d="M 156.782411 292.223573 
L 156.782411 26.111573 
" clip-path="url(#p2ef0d24cb7)" style="fill: none; stroke: #ffffff; stroke-width: 0.8; stroke-linecap: square"/>
     </g>
     <g id="line2d_6"/>
     <g id="text_3">
      <!-- $-\pi/3$ -->
      <g style="fill: #555555" transform="translate(136.835833 308.635146) scale(0.1728 -0.1728)">
       <use xlink:href="#CMSY10-0" transform="scale(0.996264)"/>
       <use xlink:href="#CMMI12-19" transform="translate(77.487468 0) scale(0.996264)"/>
       <use xlink:href="#CMMI12-3d" transform="translate(136.398068 0) scale(0.996264)"/>
       <use xlink:href="#CMR17-33" transform="translate(185.172987 0) scale(0.996264)"/>
      </g>
     </g>
    </g>
    <g id="xtick_4">
     <g id="line2d_7">
      <path d="M 263.191626 292.223573 
L 263.191626 26.111573 
" clip-path="url(#p2ef0d24cb7)" style="fill: none; stroke: #ffffff; stroke-width: 0.8; stroke-linecap: square"/>
     </g>
     <g id="line2d_8"/>
     <g id="text_4">
      <!-- $\pi/3$ -->
      <g style="fill: #555555" transform="translate(249.939959 308.635146) scale(0.1728 -0.1728)">
       <use xlink:href="#CMMI12-19" transform="scale(0.996264)"/>
       <use xlink:href="#CMMI12-3d" transform="translate(58.910601 0) scale(0.996264)"/>
       <use xlink:href="#CMR17-33" transform="translate(107.68552 0) scale(0.996264)"/>
      </g>
     </g>
    </g>
    <g id="xtick_5">
     <g id="line2d_9">
      <path d="M 316.396234 292.223573 
L 316.396234 26.111573 
" clip-path="url(#p2ef0d24cb7)" style="fill: none; stroke: #ffffff; stroke-width: 0.8; stroke-linecap: square"/>
     </g>
     <g id="line2d_10"/>
     <g id="text_5">
      <!-- $2\pi/3$ -->
      <g style="fill: #555555" transform="translate(299.196915 308.635146) scale(0.1728 -0.1728)">
       <use xlink:href="#CMR17-32" transform="scale(0.996264)"/>
       <use xlink:href="#CMMI12-19" transform="translate(45.690477 0) scale(0.996264)"/>
       <use xlink:href="#CMMI12-3d" transform="translate(104.601078 0) scale(0.996264)"/>
       <use xlink:href="#CMR17-33" transform="translate(153.375997 0) scale(0.996264)"/>
      </g>
     </g>
    </g>
    <g id="xtick_6">
     <g id="line2d_11">
      <path d="M 369.600842 292.223573 
L 369.600842 26.111573 
" clip-path="url(#p2ef0d24cb7)" style="fill: none; stroke: #ffffff; stroke-width: 0.8; stroke-linecap: square"/>
     </g>
     <g id="line2d_12"/>
     <g id="text_6">
      <!-- $\pi$ -->
      <g style="fill: #555555" transform="translate(364.819813 307.678741) scale(0.1728 -0.1728)">
       <use xlink:href="#CMMI12-19" transform="scale(0.996264)"/>
      </g>
     </g>
    </g>
    <g id="xtick_7">
     <g id="line2d_13">
      <path d="M 209.987019 292.223573 
L 209.987019 26.111573 
" clip-path="url(#p2ef0d24cb7)" style="fill: none; stroke: #ffffff; stroke-width: 0.8; stroke-linecap: square"/>
     </g>
     <g id="line2d_14"/>
     <g id="text_7">
      <!-- 0 -->
      <g style="fill: #555555" transform="translate(205.939734 307.678741) scale(0.1728 -0.1728)">
       <defs>
        <path id="CMSS17-30" d="M 2758 2073 
C 2758 2439 2752 3120 2490 3647 
C 2227 4153 1805 4288 1504 4288 
C 1069 4288 698 4031 506 3621 
C 301 3191 243 2748 243 2073 
C 243 1611 262 1046 493 551 
C 755 6 1197 -128 1498 -128 
C 1894 -128 2278 83 2496 525 
C 2720 988 2758 1495 2758 2073 
z
M 1498 262 
C 1011 262 864 821 819 1007 
C 742 1328 730 1636 730 2144 
C 730 2542 730 2992 851 3345 
C 998 3756 1254 3897 1498 3897 
C 1971 3897 2125 3422 2176 3255 
C 2272 2915 2272 2516 2272 2144 
C 2272 1546 2272 262 1498 262 
z
" transform="scale(0.015625)"/>
       </defs>
       <use xlink:href="#CMSS17-30" transform="scale(0.996264)"/>
      </g>
     </g>
    </g>
    <g id="text_8">
     <!-- $\theta$ -->
     <g style="fill: #555555" transform="translate(206.459882 326.901624) scale(0.144 -0.144)">
      <defs>
       <path id="CMMI12-12" d="M 2835 3200 
C 2835 3849 2630 4480 2106 4480 
C 1210 4480 256 2615 256 1215 
C 256 922 320 -64 992 -64 
C 1862 -64 2835 1755 2835 3200 
z
M 896 2304 
C 992 2679 1126 3213 1382 3665 
C 1594 4046 1818 4351 2099 4351 
C 2310 4351 2451 4173 2451 3563 
C 2451 3334 2432 3016 2246 2304 
L 896 2304 
z
M 2202 2112 
C 2042 1488 1907 1088 1677 687 
C 1491 362 1267 64 998 64 
C 800 64 640 216 640 846 
C 640 1259 742 1692 845 2112 
L 2202 2112 
z
" transform="scale(0.015625)"/>
      </defs>
      <use xlink:href="#CMMI12-12" transform="scale(0.996264)"/>
     </g>
    </g>
   </g>
   <g id="matplotlib.axis_2">
    <g id="ytick_1">
     <g id="line2d_15">
      <path d="M 31.172985 280.127573 
L 388.292985 280.127573 
" clip-path="url(#p2ef0d24cb7)" style="fill: none; stroke: #ffffff; stroke-width: 0.8; stroke-linecap: square"/>
     </g>
     <g id="line2d_16"/>
     <g id="text_9">
      <!-- $\mathdefault{0.0}$ -->
      <g style="fill: #555555" transform="translate(7.2 286.105157) scale(0.1728 -0.1728)">
       <defs>
        <path id="CMR17-30" d="M 2688 2038 
C 2688 2430 2682 3099 2413 3613 
C 2176 4063 1798 4224 1466 4224 
C 1158 4224 768 4082 525 3620 
C 269 3137 243 2539 243 2038 
C 243 1671 250 1112 448 623 
C 723 -39 1216 -128 1466 -128 
C 1760 -128 2208 -7 2470 604 
C 2662 1048 2688 1568 2688 2038 
z
M 1466 -26 
C 1056 -26 813 328 723 816 
C 653 1196 653 1749 653 2109 
C 653 2604 653 3015 736 3407 
C 858 3954 1216 4121 1466 4121 
C 1728 4121 2067 3947 2189 3420 
C 2272 3054 2278 2623 2278 2109 
C 2278 1691 2278 1176 2202 797 
C 2067 96 1690 -26 1466 -26 
z
" transform="scale(0.015625)"/>
        <path id="CMMI12-3a" d="M 1178 307 
C 1178 492 1024 620 870 620 
C 685 620 557 467 557 313 
C 557 128 710 0 864 0 
C 1050 0 1178 153 1178 307 
z
" transform="scale(0.015625)"/>
       </defs>
       <use xlink:href="#CMR17-30" transform="scale(0.996264)"/>
       <use xlink:href="#CMMI12-3a" transform="translate(45.690477 0) scale(0.996264)"/>
       <use xlink:href="#CMR17-30" transform="translate(72.787654 0) scale(0.996264)"/>
      </g>
     </g>
    </g>
    <g id="ytick_2">
     <g id="line2d_17">
      <path d="M 31.172985 231.743573 
L 388.292985 231.743573 
" clip-path="url(#p2ef0d24cb7)" style="fill: none; stroke: #ffffff; stroke-width: 0.8; stroke-linecap: square"/>
     </g>
     <g id="line2d_18"/>
     <g id="text_10">
      <!-- $\mathdefault{0.2}$ -->
      <g style="fill: #555555" transform="translate(7.2 237.721157) scale(0.1728 -0.1728)">
       <use xlink:href="#CMR17-30" transform="scale(0.996264)"/>
       <use xlink:href="#CMMI12-3a" transform="translate(45.690477 0) scale(0.996264)"/>
       <use xlink:href="#CMR17-32" transform="translate(72.787654 0) scale(0.996264)"/>
      </g>
     </g>
    </g>
    <g id="ytick_3">
     <g id="line2d_19">
      <path d="M 31.172985 183.359573 
L 388.292985 183.359573 
" clip-path="url(#p2ef0d24cb7)" style="fill: none; stroke: #ffffff; stroke-width: 0.8; stroke-linecap: square"/>
     </g>
     <g id="line2d_20"/>
     <g id="text_11">
      <!-- $\mathdefault{0.4}$ -->
      <g style="fill: #555555" transform="translate(7.2 189.337157) scale(0.1728 -0.1728)">
       <defs>
        <path id="CMR17-34" d="M 2150 4147 
C 2150 4281 2144 4288 2029 4288 
L 128 1254 
L 128 1088 
L 1779 1088 
L 1779 460 
C 1779 230 1766 166 1318 166 
L 1197 166 
L 1197 0 
C 1402 12 1747 12 1965 12 
C 2182 12 2528 12 2733 0 
L 2733 166 
L 2611 166 
C 2163 166 2150 230 2150 460 
L 2150 1088 
L 2803 1088 
L 2803 1254 
L 2150 1254 
L 2150 4147 
z
M 1798 3723 
L 1798 1254 
L 256 1254 
L 1798 3723 
z
" transform="scale(0.015625)"/>
       </defs>
       <use xlink:href="#CMR17-30" transform="scale(0.996264)"/>
       <use xlink:href="#CMMI12-3a" transform="translate(45.690477 0) scale(0.996264)"/>
       <use xlink:href="#CMR17-34" transform="translate(72.787654 0) scale(0.996264)"/>
      </g>
     </g>
    </g>
    <g id="ytick_4">
     <g id="line2d_21">
      <path d="M 31.172985 134.975573 
L 388.292985 134.975573 
" clip-path="url(#p2ef0d24cb7)" style="fill: none; stroke: #ffffff; stroke-width: 0.8; stroke-linecap: square"/>
     </g>
     <g id="line2d_22"/>
     <g id="text_12">
      <!-- $\mathdefault{0.6}$ -->
      <g style="fill: #555555" transform="translate(7.2 140.953157) scale(0.1728 -0.1728)">
       <defs>
        <path id="CMR17-36" d="M 678 2198 
C 678 3712 1395 4076 1811 4076 
C 1946 4076 2272 4049 2400 3782 
C 2298 3782 2106 3782 2106 3558 
C 2106 3385 2246 3328 2336 3328 
C 2394 3328 2566 3353 2566 3571 
C 2566 3987 2246 4224 1805 4224 
C 1043 4224 243 3411 243 2011 
C 243 257 966 -128 1478 -128 
C 2099 -128 2688 431 2688 1295 
C 2688 2101 2170 2688 1517 2688 
C 1126 2688 838 2430 678 1979 
L 678 2198 
z
M 1478 25 
C 691 25 691 1212 691 1450 
C 691 1914 909 2585 1504 2585 
C 1613 2585 1926 2585 2138 2140 
C 2253 1889 2253 1624 2253 1302 
C 2253 954 2253 696 2118 438 
C 1978 173 1773 25 1478 25 
z
" transform="scale(0.015625)"/>
       </defs>
       <use xlink:href="#CMR17-30" transform="scale(0.996264)"/>
       <use xlink:href="#CMMI12-3a" transform="translate(45.690477 0) scale(0.996264)"/>
       <use xlink:href="#CMR17-36" transform="translate(72.787654 0) scale(0.996264)"/>
      </g>
     </g>
    </g>
    <g id="ytick_5">
     <g id="line2d_23">
      <path d="M 31.172985 86.591573 
L 388.292985 86.591573 
" clip-path="url(#p2ef0d24cb7)" style="fill: none; stroke: #ffffff; stroke-width: 0.8; stroke-linecap: square"/>
     </g>
     <g id="line2d_24"/>
     <g id="text_13">
      <!-- $\mathdefault{0.8}$ -->
      <g style="fill: #555555" transform="translate(7.2 92.569157) scale(0.1728 -0.1728)">
       <defs>
        <path id="CMR17-38" d="M 1741 2289 
C 2144 2494 2554 2803 2554 3298 
C 2554 3884 1990 4224 1472 4224 
C 890 4224 378 3800 378 3215 
C 378 3054 416 2777 666 2533 
C 730 2469 998 2276 1171 2154 
C 883 2006 211 1652 211 945 
C 211 282 838 -128 1459 -128 
C 2144 -128 2720 366 2720 1022 
C 2720 1607 2330 1877 2074 2051 
L 1741 2289 
z
M 902 2855 
C 851 2887 595 3086 595 3388 
C 595 3781 998 4076 1459 4076 
C 1965 4076 2336 3716 2336 3298 
C 2336 2700 1670 2359 1638 2359 
C 1632 2359 1626 2359 1574 2398 
L 902 2855 
z
M 2080 1536 
C 2176 1466 2483 1253 2483 861 
C 2483 385 2010 25 1472 25 
C 890 25 448 443 448 951 
C 448 1459 838 1884 1280 2083 
L 2080 1536 
z
" transform="scale(0.015625)"/>
       </defs>
       <use xlink:href="#CMR17-30" transform="scale(0.996264)"/>
       <use xlink:href="#CMMI12-3a" transform="translate(45.690477 0) scale(0.996264)"/>
       <use xlink:href="#CMR17-38" transform="translate(72.787654 0) scale(0.996264)"/>
      </g>
     </g>
    </g>
    <g id="ytick_6">
     <g id="line2d_25">
      <path d="M 31.172985 38.207573 
L 388.292985 38.207573 
" clip-path="url(#p2ef0d24cb7)" style="fill: none; stroke: #ffffff; stroke-width: 0.8; stroke-linecap: square"/>
     </g>
     <g id="line2d_26"/>
     <g id="text_14">
      <!-- $\mathdefault{1.0}$ -->
      <g style="fill: #555555" transform="translate(7.2 44.185157) scale(0.1728 -0.1728)">
       <defs>
        <path id="CMR17-31" d="M 1702 4083 
C 1702 4217 1696 4224 1606 4224 
C 1357 3927 979 3833 621 3820 
C 602 3820 570 3820 563 3808 
C 557 3795 557 3782 557 3648 
C 755 3648 1088 3686 1344 3839 
L 1344 467 
C 1344 243 1331 166 781 166 
L 589 166 
L 589 0 
C 896 6 1216 12 1523 12 
C 1830 12 2150 6 2458 0 
L 2458 166 
L 2266 166 
C 1715 166 1702 236 1702 467 
L 1702 4083 
z
" transform="scale(0.015625)"/>
       </defs>
       <use xlink:href="#CMR17-31" transform="scale(0.996264)"/>
       <use xlink:href="#CMMI12-3a" transform="translate(45.690477 0) scale(0.996264)"/>
       <use xlink:href="#CMR17-30" transform="translate(72.787654 0) scale(0.996264)"/>
      </g>
     </g>
    </g>
   </g>
   <g id="line2d_27">
    <path d="M 47.405712 280.072966 
L 51.470245 280.120118 
L 55.534778 279.961942 
L 59.59931 279.593945 
L 63.663843 279.005691 
L 67.728376 278.180549 
L 71.284842 277.246162 
L 74.841308 276.092825 
L 78.397774 274.696235 
L 81.446173 273.283759 
L 84.494573 271.650389 
L 87.542972 269.77248 
L 90.591372 267.623786 
L 93.639771 265.175595 
L 96.688171 262.397004 
L 99.228504 259.805611 
L 101.768837 256.942633 
L 104.30917 253.788428 
L 106.849503 250.323668 
L 109.389835 246.52991 
L 111.930168 242.390261 
L 114.978568 236.945805 
L 118.026967 230.963459 
L 121.075367 224.433026 
L 124.123766 217.35532 
L 127.172166 209.744186 
L 130.728632 200.229155 
L 134.285098 190.099346 
L 138.857697 176.336622 
L 144.954496 157.149232 
L 155.115828 125.044937 
L 159.688427 111.365008 
L 163.75296 99.933755 
L 167.309426 90.616772 
L 170.357825 83.198509 
L 173.406225 76.337846 
L 176.454624 70.054395 
L 178.994957 65.266307 
L 181.53529 60.887048 
L 184.075623 56.914637 
L 186.615956 53.3447 
L 189.156289 50.171184 
L 191.696622 47.386999 
L 194.236954 44.984591 
L 196.269221 43.332477 
L 198.301487 41.916215 
L 200.333753 40.732441 
L 202.36602 39.778182 
L 204.398286 39.050938 
L 206.430552 38.548741 
L 208.462819 38.2702 
L 210.495085 38.214531 
L 212.527351 38.381577 
L 214.559618 38.77181 
L 216.591884 39.386319 
L 218.62415 40.22679 
L 220.656417 41.295463 
L 222.688683 42.595083 
L 224.720949 44.12883 
L 226.753216 45.900228 
L 229.293549 48.454432 
L 231.833882 51.393458 
L 234.374214 54.724736 
L 236.914547 58.455014 
L 239.45488 62.589757 
L 241.995213 67.132469 
L 244.535546 72.083965 
L 247.583946 78.561345 
L 250.632345 85.610598 
L 253.680744 93.208397 
L 257.237211 102.717806 
L 260.793677 112.846135 
L 265.366276 126.60787 
L 271.463075 145.793904 
L 281.624406 177.899679 
L 286.197006 191.580593 
L 290.261538 203.014158 
L 293.818004 212.339058 
L 296.866404 219.774797 
L 299.914803 226.670935 
L 302.963203 233.018175 
L 306.011602 238.81961 
L 309.060002 244.088621 
L 312.108401 248.846633 
L 315.156801 253.120927 
L 318.2052 256.942633 
L 321.2536 260.344988 
L 324.301999 263.361898 
L 327.350399 266.026803 
L 330.398798 268.371828 
L 333.447198 270.427188 
L 336.495597 272.220795 
L 339.543997 273.778037 
L 343.100463 275.326306 
L 346.656929 276.615378 
L 350.213395 277.672165 
L 353.769861 278.519062 
L 357.834394 279.253015 
L 361.898926 279.757063 
L 365.963459 280.045477 
L 370.027992 280.126443 
L 372.060258 280.090079 
L 372.060258 280.090079 
" clip-path="url(#p2ef0d24cb7)" style="fill: none; stroke: #e24a33; stroke-width: 1.5; stroke-linecap: square"/>
   </g>
   <g id="line2d_28">
    <path d="M 47.405712 280.126334 
L 72.809042 280.038534 
L 86.018773 279.80131 
L 94.147838 279.446407 
L 99.73657 278.996928 
L 104.30917 278.40685 
L 107.865636 277.732132 
L 110.914035 276.93768 
L 113.454368 276.070718 
L 115.994701 274.961993 
L 118.026967 273.85727 
L 120.059234 272.515412 
L 122.0915 270.888855 
L 124.123766 268.922676 
L 126.156033 266.554511 
L 127.680232 264.47311 
L 129.204432 262.095279 
L 130.728632 259.388279 
L 132.252832 256.318817 
L 133.777031 252.854046 
L 135.301231 248.96284 
L 137.333497 243.063754 
L 139.365764 236.306377 
L 141.39803 228.663591 
L 143.430296 220.140439 
L 145.970629 208.319414 
L 148.510962 195.374169 
L 152.067428 175.91076 
L 160.196494 130.760251 
L 163.244893 115.443849 
L 165.785226 103.855056 
L 168.325559 93.453626 
L 170.357825 86.008233 
L 172.390091 79.326606 
L 174.422358 73.375022 
L 176.454624 68.10725 
L 178.48689 63.469828 
L 180.519157 59.406266 
L 182.551423 55.860194 
L 184.583689 52.777546 
L 186.615956 50.107967 
L 188.648222 47.805614 
L 190.680488 45.82951 
L 192.712755 44.143605 
L 194.745021 42.716629 
L 196.777287 41.521845 
L 199.31762 40.320958 
L 201.857953 39.412503 
L 204.398286 38.769643 
L 206.938619 38.373419 
L 209.478952 38.212164 
L 212.019285 38.281138 
L 214.559618 38.582369 
L 217.099951 39.124719 
L 219.640284 39.924172 
L 222.180616 41.004331 
L 224.212883 42.091716 
L 226.245149 43.399525 
L 228.277415 44.952346 
L 230.309682 46.779148 
L 232.341948 48.913564 
L 234.374214 51.3941 
L 236.406481 54.264188 
L 238.438747 57.571997 
L 240.471013 61.36987 
L 242.50328 65.713247 
L 244.535546 70.658886 
L 246.567812 76.262222 
L 248.600079 82.573695 
L 250.632345 89.634003 
L 252.664611 97.468351 
L 254.696878 106.080014 
L 257.237211 117.896211 
L 259.777543 130.760251 
L 263.33401 150.100299 
L 271.971141 198.041047 
L 274.511474 210.780821 
L 277.051807 222.352073 
L 279.084074 230.657639 
L 281.11634 238.078159 
L 283.148606 244.617337 
L 285.180873 250.309096 
L 287.213139 255.209403 
L 289.245405 259.388279 
L 291.277672 262.922827 
L 293.309938 265.891673 
L 295.342204 268.370917 
L 297.37447 270.43146 
L 299.406737 272.13748 
L 301.439003 273.545772 
L 303.471269 274.705708 
L 306.011602 275.870214 
L 308.551935 276.780934 
L 311.600335 277.61545 
L 315.156801 278.323989 
L 319.221333 278.886945 
L 324.301999 279.345842 
L 330.906865 279.697024 
L 340.052063 279.94317 
L 354.785994 280.093571 
L 372.060258 280.126723 
L 372.060258 280.126723 
" clip-path="url(#p2ef0d24cb7)" style="fill: none; stroke: #348abd; stroke-width: 1.5; stroke-linecap: square"/>
   </g>
   <g id="line2d_29">
    <path d="M 47.405712 280.127572 
L 115.994701 280.023402 
L 122.0915 279.791894 
L 125.647966 279.456182 
L 128.188299 279.023754 
L 130.220565 278.484659 
L 132.252832 277.684975 
L 133.777031 276.843463 
L 135.301231 275.720105 
L 136.825431 274.227163 
L 137.841564 272.973009 
L 138.857697 271.467025 
L 139.87383 269.664894 
L 140.889963 267.51699 
L 141.906097 264.968743 
L 142.92223 261.961497 
L 143.938363 258.434011 
L 144.954496 254.324746 
L 146.478696 246.943498 
L 148.002896 237.959647 
L 149.527095 227.284138 
L 151.051295 214.942715 
L 153.083561 196.217554 
L 156.131961 165.121119 
L 159.18036 134.140354 
L 161.212627 115.501087 
L 162.736826 103.120614 
L 164.261026 92.258824 
L 165.785226 82.917482 
L 167.309426 75.011707 
L 168.833625 68.403977 
L 170.357825 62.932592 
L 171.882025 58.432224 
L 173.406225 54.746843 
L 174.930424 51.7366 
L 176.454624 49.28047 
L 177.978824 47.276262 
L 179.503024 45.63917 
L 181.027223 44.299679 
L 182.551423 43.201284 
L 184.583689 42.034193 
L 186.615956 41.131155 
L 189.156289 40.279253 
L 191.696622 39.653571 
L 194.745021 39.115795 
L 198.809554 38.64807 
L 203.382153 38.350043 
L 208.970885 38.210814 
L 215.067684 38.290489 
L 220.14835 38.564211 
L 224.212883 38.976095 
L 227.769349 39.549771 
L 230.817748 40.279253 
L 233.358081 41.131155 
L 235.390348 42.034193 
L 237.422614 43.201284 
L 238.946814 44.299679 
L 240.471013 45.63917 
L 241.995213 47.276262 
L 243.519413 49.28047 
L 245.043613 51.7366 
L 246.567812 54.746843 
L 248.092012 58.432224 
L 249.616212 62.932592 
L 251.140412 68.403977 
L 252.664611 75.011707 
L 254.188811 82.917482 
L 255.713011 92.258824 
L 257.237211 103.120614 
L 258.76141 115.501087 
L 260.793677 134.140354 
L 263.33401 159.831444 
L 267.398542 201.108142 
L 269.430809 219.234221 
L 270.955008 231.031796 
L 272.479208 241.139809 
L 274.003408 249.575053 
L 275.527607 256.455878 
L 277.051807 261.961497 
L 278.576007 266.296494 
L 279.59214 268.637466 
L 280.608273 270.605957 
L 282.132473 272.973009 
L 283.656673 274.772191 
L 285.180873 276.130855 
L 286.705072 277.151539 
L 288.229272 277.915173 
L 290.261538 278.640053 
L 292.293805 279.128275 
L 294.834138 279.519652 
L 298.390604 279.823396 
L 303.471269 280.012873 
L 313.124535 280.108143 
L 352.753728 280.127519 
L 372.060258 280.127572 
L 372.060258 280.127572 
" clip-path="url(#p2ef0d24cb7)" style="fill: none; stroke: #988ed5; stroke-width: 1.5; stroke-linecap: square"/>
   </g>
   <g id="line2d_30">
    <path d="M 47.405712 280.127573 
L 135.809298 280.027351 
L 138.857697 279.799121 
L 140.889963 279.408327 
L 142.414163 278.8399 
L 143.430296 278.235259 
L 144.44643 277.355636 
L 145.462563 276.082862 
L 146.478696 274.253661 
L 147.494829 271.64744 
L 148.510962 267.975433 
L 149.527095 262.876502 
L 150.543228 255.928851 
L 151.559362 246.69069 
L 152.575495 234.782715 
L 153.591628 220.014108 
L 155.115828 192.92473 
L 159.688427 104.515748 
L 160.70456 89.766243 
L 161.720693 77.71102 
L 162.736826 68.154138 
L 163.75296 60.749858 
L 164.769093 55.107344 
L 165.785226 50.855705 
L 166.801359 47.675061 
L 167.817492 45.305251 
L 168.833625 43.542539 
L 169.849759 42.231276 
L 170.865892 41.254461 
L 171.882025 40.525043 
L 173.406225 39.758735 
L 174.930424 39.257722 
L 176.962691 38.843401 
L 179.503024 38.557346 
L 183.567556 38.350965 
L 191.188555 38.239098 
L 215.575751 38.208984 
L 235.390348 38.323596 
L 240.471013 38.557346 
L 243.519413 38.926951 
L 245.551679 39.401993 
L 247.075879 39.978652 
L 248.600079 40.863308 
L 249.616212 41.707113 
L 250.632345 42.838586 
L 251.648478 44.358751 
L 252.664611 46.402772 
L 253.680744 49.149168 
L 254.696878 52.829036 
L 255.713011 57.732531 
L 256.729144 64.207247 
L 257.745277 72.639801 
L 258.76141 83.409103 
L 259.777543 96.801365 
L 260.793677 112.888833 
L 262.317876 141.366465 
L 265.874342 211.584922 
L 266.890476 227.756514 
L 267.906609 241.088486 
L 268.922742 251.622544 
L 269.938875 259.661648 
L 270.955008 265.629573 
L 271.971141 269.965566 
L 272.987275 273.064029 
L 274.003408 275.250115 
L 275.019541 276.777399 
L 276.035674 277.836287 
L 277.051807 278.566012 
L 278.06794 279.066466 
L 279.59214 279.5359 
L 281.624406 279.857855 
L 284.672806 280.04542 
L 290.769605 280.120092 
L 334.971398 280.127573 
L 372.060258 280.127573 
L 372.060258 280.127573 
" clip-path="url(#p2ef0d24cb7)" style="fill: none; stroke: #777777; stroke-width: 1.5; stroke-linecap: square"/>
   </g>
   <g id="line2d_31">
    <path d="M 47.405712 280.127573 
L 148.002896 280.030229 
L 149.019029 279.879624 
L 150.035162 279.501159 
L 150.543228 279.13546 
L 151.051295 278.560694 
L 151.559362 277.661241 
L 152.067428 276.261564 
L 152.575495 274.099872 
L 153.083561 270.796097 
L 153.591628 265.820927 
L 154.099695 258.484379 
L 154.607761 247.981264 
L 155.115828 233.548003 
L 156.131961 191.976331 
L 158.164227 95.582009 
L 158.672294 79.081692 
L 159.18036 66.663419 
L 159.688427 57.701478 
L 160.196494 51.421987 
L 160.70456 47.1084 
L 161.212627 44.182662 
L 161.720693 42.213422 
L 162.22876 40.893541 
L 162.736826 40.010529 
L 163.244893 39.419941 
L 164.261026 38.75959 
L 165.277159 38.46168 
L 166.801359 38.288769 
L 170.357825 38.213937 
L 201.857953 38.207573 
L 253.172678 38.288769 
L 254.696878 38.46168 
L 255.713011 38.75959 
L 256.221077 39.024616 
L 256.729144 39.419941 
L 257.237211 40.010529 
L 257.745277 40.893541 
L 258.253344 42.213422 
L 258.76141 44.182662 
L 259.269477 47.1084 
L 259.777543 51.421987 
L 260.28561 57.701478 
L 260.793677 66.663419 
L 261.301743 79.081692 
L 261.80981 95.582009 
L 262.825943 140.507686 
L 264.350143 214.769397 
L 264.858209 233.548003 
L 265.366276 247.981264 
L 265.874342 258.484379 
L 266.382409 265.820927 
L 266.890476 270.796097 
L 267.398542 274.099872 
L 267.906609 276.261564 
L 268.414675 277.661241 
L 268.922742 278.560694 
L 269.430809 279.13546 
L 270.446942 279.733032 
L 271.463075 279.972066 
L 273.495341 280.103946 
L 281.11634 280.127557 
L 372.060258 280.127573 
L 372.060258 280.127573 
" clip-path="url(#p2ef0d24cb7)" style="fill: none; stroke: #fbc15e; stroke-width: 1.5; stroke-linecap: square"/>
   </g>
   <g id="patch_3">
    <path d="M 31.172985 292.223573 
L 31.172985 26.111573 
" style="fill: none; stroke: #ffffff; stroke-linejoin: miter; stroke-linecap: square"/>
   </g>
   <g id="patch_4">
    <path d="M 388.292985 292.223573 
L 388.292985 26.111573 
" style="fill: none; stroke: #ffffff; stroke-linejoin: miter; stroke-linecap: square"/>
   </g>
   <g id="patch_5">
    <path d="M 31.172985 292.223573 
L 388.292985 292.223573 
" style="fill: none; stroke: #ffffff; stroke-linejoin: miter; stroke-linecap: square"/>
   </g>
   <g id="patch_6">
    <path d="M 31.172985 26.111573 
L 388.292985 26.111573 
" style="fill: none; stroke: #ffffff; stroke-linejoin: miter; stroke-linecap: square"/>
   </g>
   <g id="text_15">
    <!-- Modulator $f(\theta, \alpha=\pi/3, \omega)$ -->
    <g transform="translate(113.989971 20.111573) scale(0.1728 -0.1728)">
     <defs>
      <path id="CMSS17-4d" d="M 3194 2373 
L 2886 1476 
C 2835 1311 2662 795 2624 592 
L 2618 592 
C 2598 719 2560 853 2458 1177 
C 2400 1368 2336 1565 2272 1743 
L 1325 4416 
L 576 4416 
L 576 0 
L 1075 0 
L 1075 3899 
L 1082 3899 
C 1082 3893 1139 3613 1530 2500 
L 2374 102 
L 2848 102 
L 3610 2233 
C 3661 2379 3821 2843 3891 3066 
C 3955 3257 4115 3728 4154 3912 
L 4160 3912 
L 4160 0 
L 4666 0 
L 4666 4416 
L 3923 4416 
L 3194 2373 
z
" transform="scale(0.015625)"/>
      <path id="CMSS17-6f" d="M 2829 1356 
C 2829 2175 2221 2816 1504 2816 
C 768 2816 173 2156 173 1356 
C 173 544 787 -64 1498 -64 
C 2227 -64 2829 563 2829 1356 
z
M 1504 339 
C 1050 339 659 710 659 1407 
C 659 2150 1114 2425 1498 2425 
C 1914 2425 2342 2124 2342 1407 
C 2342 684 1926 339 1504 339 
z
" transform="scale(0.015625)"/>
      <path id="CMSS17-64" d="M 2611 4416 
L 2138 4416 
L 2138 2495 
C 1939 2662 1613 2816 1254 2816 
C 672 2816 211 2179 211 1375 
C 211 572 666 -64 1235 -64 
C 1677 -64 1971 172 2125 307 
L 2125 -13 
L 2611 -13 
L 2611 4416 
z
M 2125 851 
C 2125 760 2125 663 1926 488 
C 1798 378 1645 326 1498 326 
C 1152 326 698 585 698 1369 
C 698 2185 1210 2425 1562 2425 
C 1798 2425 1990 2308 2125 2114 
L 2125 851 
z
" transform="scale(0.015625)"/>
      <path id="CMSS17-75" d="M 2618 2752 
L 2131 2752 
L 2131 976 
C 2131 500 1786 307 1421 307 
C 998 307 960 448 960 712 
L 960 2752 
L 474 2752 
L 474 680 
C 474 179 646 -64 1088 -64 
C 1306 -64 1798 -13 2144 307 
L 2144 -13 
L 2618 -13 
L 2618 2752 
z
" transform="scale(0.015625)"/>
      <path id="CMSS17-6c" d="M 947 4416 
L 474 4416 
L 474 0 
L 947 0 
L 947 4416 
z
" transform="scale(0.015625)"/>
      <path id="CMSS17-61" d="M 2406 1789 
C 2406 2399 1978 2816 1402 2816 
C 1120 2816 813 2764 461 2559 
L 499 2133 
C 659 2250 934 2438 1395 2438 
C 1722 2438 1920 2185 1920 1782 
L 1920 1536 
C 896 1504 256 1209 256 711 
C 256 452 416 -64 947 -64 
C 1043 -64 1562 -52 1933 224 
L 1933 -13 
L 2406 -13 
L 2406 1789 
z
M 1920 824 
C 1920 711 1920 559 1728 446 
C 1562 339 1350 326 1261 326 
C 941 326 723 503 723 723 
C 723 1165 1722 1209 1920 1216 
L 1920 824 
z
" transform="scale(0.015625)"/>
      <path id="CMSS17-74" d="M 1069 2380 
L 1901 2380 
L 1901 2752 
L 1069 2752 
L 1069 3520 
L 614 3520 
L 614 2752 
L 109 2752 
L 109 2380 
L 602 2380 
L 602 751 
C 602 384 685 -64 1107 -64 
C 1427 -64 1722 25 2003 172 
L 1901 551 
C 1747 416 1562 339 1363 339 
C 1082 339 1069 699 1069 860 
L 1069 2380 
z
" transform="scale(0.015625)"/>
      <path id="CMSS17-72" d="M 954 1369 
C 954 1974 1395 2379 1958 2392 
L 1958 2816 
C 1549 2809 1165 2604 934 2270 
L 934 2783 
L 480 2783 
L 480 0 
L 954 0 
L 954 1369 
z
" transform="scale(0.015625)"/>
      <path id="CMMI12-66" d="M 2854 2566 
C 2982 2566 3034 2566 3034 2687 
C 3034 2752 2982 2752 2867 2752 
L 2349 2752 
C 2470 3398 2560 3846 2611 4051 
C 2650 4204 2784 4351 2950 4351 
C 3085 4351 3219 4294 3283 4236 
C 3034 4211 2957 4025 2957 3916 
C 2957 3788 3053 3712 3174 3712 
C 3302 3712 3494 3820 3494 4064 
C 3494 4332 3226 4480 2944 4480 
C 2669 4480 2400 4275 2272 4025 
C 2157 3801 2093 3573 1946 2752 
L 1517 2752 
C 1395 2752 1331 2752 1331 2636 
C 1331 2566 1370 2566 1498 2566 
L 1907 2566 
C 1792 1977 1530 545 1382 -132 
C 1274 -685 1178 -1152 858 -1152 
C 838 -1152 653 -1152 538 -1031 
C 864 -1005 864 -724 864 -717 
C 864 -589 768 -512 646 -512 
C 518 -512 326 -621 326 -865 
C 326 -1140 608 -1280 858 -1280 
C 1510 -1280 1779 -113 1850 203 
C 1965 691 2278 2376 2310 2566 
L 2854 2566 
z
" transform="scale(0.015625)"/>
      <path id="CMR17-28" d="M 1958 -1562 
C 1958 -1556 1958 -1543 1939 -1524 
C 1645 -1223 858 -403 858 1596 
C 858 3595 1632 4408 1946 4729 
C 1946 4735 1958 4748 1958 4767 
C 1958 4787 1939 4800 1914 4800 
C 1843 4800 1299 4325 986 3620 
C 666 2909 576 2218 576 1603 
C 576 1141 621 360 1005 -467 
C 1312 -1133 1837 -1600 1914 -1600 
C 1946 -1600 1958 -1588 1958 -1562 
z
" transform="scale(0.015625)"/>
      <path id="CMMI12-3b" d="M 1248 -26 
C 1248 345 1126 620 864 620 
C 659 620 557 454 557 313 
C 557 172 653 0 870 0 
C 954 0 1024 25 1082 83 
C 1094 96 1101 96 1107 96 
C 1120 96 1120 6 1120 -26 
C 1120 -233 1082 -642 710 -1051 
C 640 -1127 640 -1140 640 -1152 
C 640 -1184 672 -1216 704 -1216 
C 755 -1216 1248 -749 1248 -26 
z
" transform="scale(0.015625)"/>
      <path id="CMMI12-b" d="M 2963 1615 
C 2963 2234 2611 2816 1933 2816 
C 1094 2816 256 1902 256 996 
C 256 440 602 -64 1254 -64 
C 1651 -64 2125 89 2579 472 
C 2669 115 2867 -64 3142 -64 
C 3488 -64 3661 293 3661 376 
C 3661 434 3616 434 3597 434 
C 3546 434 3539 415 3520 364 
C 3462 204 3315 64 3162 64 
C 2963 64 2963 472 2963 862 
C 3616 1641 3770 2445 3770 2451 
C 3770 2509 3718 2509 3699 2509 
C 3642 2509 3635 2490 3610 2375 
C 3526 2094 3360 1596 2963 1072 
L 2963 1615 
z
M 2560 625 
C 1997 121 1491 64 1267 64 
C 813 64 685 466 685 766 
C 685 1040 826 1692 1024 2043 
C 1286 2490 1645 2687 1933 2687 
C 2554 2687 2554 1877 2554 1340 
C 2554 1181 2547 1015 2547 855 
C 2547 728 2554 696 2560 625 
z
" transform="scale(0.015625)"/>
      <path id="CMR17-3d" d="M 4115 2048 
C 4211 2048 4307 2048 4307 2156 
C 4307 2272 4198 2272 4090 2272 
L 512 2272 
C 403 2272 294 2272 294 2156 
C 294 2048 390 2048 486 2048 
L 4115 2048 
z
M 4090 927 
C 4198 927 4307 927 4307 1043 
C 4307 1152 4211 1152 4115 1152 
L 486 1152 
C 390 1152 294 1152 294 1043 
C 294 927 403 927 512 927 
L 4090 927 
z
" transform="scale(0.015625)"/>
      <path id="CMMI12-21" d="M 3802 2406 
C 3802 2592 3750 2828 3526 2828 
C 3398 2828 3251 2668 3251 2540 
C 3251 2483 3277 2444 3328 2387 
C 3424 2278 3546 2105 3546 1804 
C 3546 1574 3405 1209 3302 1011 
C 3123 659 2829 358 2496 358 
C 2093 358 1939 614 1869 972 
C 1939 1139 2086 1555 2086 1721 
C 2086 1792 2061 1849 1978 1849 
C 1933 1849 1882 1824 1850 1772 
C 1760 1632 1677 1126 1683 992 
C 1562 755 1216 358 806 358 
C 378 358 262 736 262 1100 
C 262 1766 678 2348 794 2508 
C 858 2604 902 2668 902 2681 
C 902 2726 877 2796 819 2796 
C 717 2796 685 2713 634 2636 
C 307 2131 77 1420 77 806 
C 77 409 224 -64 704 -64 
C 1235 -64 1568 390 1702 633 
C 1754 275 1946 -64 2413 -64 
C 2899 -64 3206 364 3437 883 
C 3603 1254 3802 2054 3802 2406 
z
" transform="scale(0.015625)"/>
      <path id="CMR17-29" d="M 1683 1596 
C 1683 2057 1638 2839 1254 3665 
C 947 4332 422 4800 346 4800 
C 326 4800 301 4793 301 4761 
C 301 4748 307 4742 314 4729 
C 621 4408 1402 3595 1402 1603 
C 1402 -396 627 -1210 314 -1530 
C 307 -1543 301 -1549 301 -1562 
C 301 -1594 326 -1600 346 -1600 
C 416 -1600 960 -1127 1274 -422 
C 1594 289 1683 981 1683 1596 
z
" transform="scale(0.015625)"/>
     </defs>
     <use xlink:href="#CMSS17-4d" transform="scale(0.996264)"/>
     <use xlink:href="#CMSS17-6f" transform="translate(81.67603 0) scale(0.996264)"/>
     <use xlink:href="#CMSS17-64" transform="translate(131.122092 0) scale(0.996264)"/>
     <use xlink:href="#CMSS17-75" transform="translate(179.327035 0) scale(0.996264)"/>
     <use xlink:href="#CMSS17-6c" transform="translate(227.531978 0) scale(0.996264)"/>
     <use xlink:href="#CMSS17-61" transform="translate(249.712702 0) scale(0.996264)"/>
     <use xlink:href="#CMSS17-74" transform="translate(294.634622 0) scale(0.996264)"/>
     <use xlink:href="#CMSS17-6f" transform="translate(328.466189 0) scale(0.996264)"/>
     <use xlink:href="#CMSS17-72" transform="translate(372.707358 0) scale(0.996264)"/>
     <use xlink:href="#CMMI12-66" transform="translate(435.846244 0) scale(0.996264)"/>
     <use xlink:href="#CMR17-28" transform="translate(494.566549 0) scale(0.996264)"/>
     <use xlink:href="#CMMI12-12" transform="translate(529.847316 0) scale(0.996264)"/>
     <use xlink:href="#CMMI12-3b" transform="translate(578.016824 0) scale(0.996264)"/>
     <use xlink:href="#CMMI12-b" transform="translate(621.718406 0) scale(0.996264)"/>
     <use xlink:href="#CMR17-3d" transform="translate(712.073438 0) scale(0.996264)"/>
     <use xlink:href="#CMMI12-19" transform="translate(811.462235 0) scale(0.996264)"/>
     <use xlink:href="#CMMI12-3d" transform="translate(870.372836 0) scale(0.996264)"/>
     <use xlink:href="#CMR17-33" transform="translate(919.147755 0) scale(0.996264)"/>
     <use xlink:href="#CMMI12-3b" transform="translate(964.838232 0) scale(0.996264)"/>
     <use xlink:href="#CMMI12-21" transform="translate(1008.539814 0) scale(0.996264)"/>
     <use xlink:href="#CMR17-29" transform="translate(1072.85816 0) scale(0.996264)"/>
    </g>
   </g>
   <g id="legend_1">
    <g id="patch_7">
     <path d="M 306.322506 119.334552 
L 379.892985 119.334552 
Q 382.292985 119.334552 382.292985 116.934552 
L 382.292985 34.511573 
Q 382.292985 32.111573 379.892985 32.111573 
L 306.322506 32.111573 
Q 303.922506 32.111573 303.922506 34.511573 
L 303.922506 116.934552 
Q 303.922506 119.334552 306.322506 119.334552 
z
" style="fill: #e5e5e5; opacity: 0.8; stroke: #cccccc; stroke-width: 0.5; stroke-linejoin: miter"/>
    </g>
    <g id="line2d_32">
     <path d="M 308.722506 41.111573 
L 320.722506 41.111573 
L 332.722506 41.111573 
" style="fill: none; stroke: #e24a33; stroke-width: 1.5; stroke-linecap: square"/>
    </g>
    <g id="text_16">
     <!-- $\omega=2$ -->
     <g transform="translate(342.322506 45.311573) scale(0.12 -0.12)">
      <use xlink:href="#CMMI12-21" transform="scale(0.996264)"/>
      <use xlink:href="#CMR17-3d" transform="translate(91.992355 0) scale(0.996264)"/>
      <use xlink:href="#CMR17-32" transform="translate(191.381152 0) scale(0.996264)"/>
     </g>
    </g>
    <g id="line2d_33">
     <path d="M 308.722506 57.836169 
L 320.722506 57.836169 
L 332.722506 57.836169 
" style="fill: none; stroke: #348abd; stroke-width: 1.5; stroke-linecap: square"/>
    </g>
    <g id="text_17">
     <!-- $\omega=5$ -->
     <g transform="translate(342.322506 62.036169) scale(0.12 -0.12)">
      <defs>
       <path id="CMR17-35" d="M 730 3750 
C 794 3724 1056 3641 1325 3641 
C 1920 3641 2246 3961 2432 4140 
C 2432 4191 2432 4224 2394 4224 
C 2387 4224 2374 4224 2323 4198 
C 2099 4102 1837 4032 1517 4032 
C 1325 4032 1037 4055 723 4191 
C 653 4224 640 4224 634 4224 
C 602 4224 595 4217 595 4090 
L 595 2231 
C 595 2113 595 2080 659 2080 
C 691 2080 704 2093 736 2139 
C 941 2435 1222 2560 1542 2560 
C 1766 2560 2246 2415 2246 1293 
C 2246 1087 2246 716 2054 422 
C 1894 159 1645 25 1370 25 
C 947 25 518 319 403 812 
C 429 806 480 793 506 793 
C 589 793 749 838 749 1036 
C 749 1209 627 1280 506 1280 
C 358 1280 262 1190 262 1011 
C 262 454 704 -128 1382 -128 
C 2042 -128 2669 441 2669 1267 
C 2669 2054 2170 2662 1549 2662 
C 1222 2662 947 2540 730 2304 
L 730 3750 
z
" transform="scale(0.015625)"/>
      </defs>
      <use xlink:href="#CMMI12-21" transform="scale(0.996264)"/>
      <use xlink:href="#CMR17-3d" transform="translate(91.992355 0) scale(0.996264)"/>
      <use xlink:href="#CMR17-35" transform="translate(191.381152 0) scale(0.996264)"/>
     </g>
    </g>
    <g id="line2d_34">
     <path d="M 308.722506 74.560765 
L 320.722506 74.560765 
L 332.722506 74.560765 
" style="fill: none; stroke: #988ed5; stroke-width: 1.5; stroke-linecap: square"/>
    </g>
    <g id="text_18">
     <!-- $\omega=10$ -->
     <g transform="translate(342.322506 78.760765) scale(0.12 -0.12)">
      <use xlink:href="#CMMI12-21" transform="scale(0.996264)"/>
      <use xlink:href="#CMR17-3d" transform="translate(91.992355 0) scale(0.996264)"/>
      <use xlink:href="#CMR17-31" transform="translate(191.381152 0) scale(0.996264)"/>
      <use xlink:href="#CMR17-30" transform="translate(237.071629 0) scale(0.996264)"/>
     </g>
    </g>
    <g id="line2d_35">
     <path d="M 308.722506 91.28536 
L 320.722506 91.28536 
L 332.722506 91.28536 
" style="fill: none; stroke: #777777; stroke-width: 1.5; stroke-linecap: square"/>
    </g>
    <g id="text_19">
     <!-- $\omega=20$ -->
     <g transform="translate(342.322506 95.48536) scale(0.12 -0.12)">
      <use xlink:href="#CMMI12-21" transform="scale(0.996264)"/>
      <use xlink:href="#CMR17-3d" transform="translate(91.992355 0) scale(0.996264)"/>
      <use xlink:href="#CMR17-32" transform="translate(191.381152 0) scale(0.996264)"/>
      <use xlink:href="#CMR17-30" transform="translate(237.071629 0) scale(0.996264)"/>
     </g>
    </g>
    <g id="line2d_36">
     <path d="M 308.722506 108.009956 
L 320.722506 108.009956 
L 332.722506 108.009956 
" style="fill: none; stroke: #fbc15e; stroke-width: 1.5; stroke-linecap: square"/>
    </g>
    <g id="text_20">
     <!-- $\omega=50$ -->
     <g transform="translate(342.322506 112.209956) scale(0.12 -0.12)">
      <use xlink:href="#CMMI12-21" transform="scale(0.996264)"/>
      <use xlink:href="#CMR17-3d" transform="translate(91.992355 0) scale(0.996264)"/>
      <use xlink:href="#CMR17-35" transform="translate(191.381152 0) scale(0.996264)"/>
      <use xlink:href="#CMR17-30" transform="translate(237.071629 0) scale(0.996264)"/>
     </g>
    </g>
   </g>
  </g>
 </g>
 <defs>
  <clipPath id="p2ef0d24cb7">
   <rect x="31.172985" y="26.111573" width="357.12" height="266.112"/>
  </clipPath>
 </defs>
</svg>
